<?xml version="1.0" encoding="utf-8"?>
<!-- Generator: Adobe Illustrator 25.2.0, SVG Export Plug-In . SVG Version: 6.00 Build 0)  -->
<svg version="1.1" id="Layer_1" xmlns="http://www.w3.org/2000/svg" xmlns:xlink="http://www.w3.org/1999/xlink" x="0px" y="0px"
	 viewBox="0 0 15 11" style="enable-background:new 0 0 15 11;" xml:space="preserve">
<path d="M14.7,0.7c0-0.1-0.1-0.2-0.2-0.2C14.2,0.2,13.8,0,13.4,0h0H1.6C1.2,0,0.8,0.2,0.5,0.5C0.2,0.8,0,1.2,0,1.6v7.8
	c0,0.4,0.2,0.8,0.5,1.1C0.8,10.8,1.2,11,1.6,11h11.8c0,0,0,0,0,0c0.4,0,0.8-0.2,1.1-0.5c0.1-0.1,0.2-0.1,0.2-0.2
	C14.9,10,15,9.7,15,9.4V1.6C15,1.3,14.9,1,14.7,0.7z M5,5.5L1,9.3V1.7L5,5.5z M14,1.8v7.4l-3.9-3.7L14,1.8z M8,6.1
	C7.9,6.2,7.7,6.3,7.5,6.3c-0.2,0-0.3-0.1-0.5-0.2L1.7,1h11.8L8,6.1z M5.7,6.2l0.7,0.6c0.3,0.3,0.7,0.5,1.2,0.5c0,0,0,0,0,0
	c0.4,0,0.8-0.2,1.1-0.4l0.7-0.6l4.1,3.8H1.7L5.7,6.2z"/>
</svg>
