<?xml version="1.0" encoding="utf-8"?>
<!-- Generator: Adobe Illustrator 25.2.0, SVG Export Plug-In . SVG Version: 6.00 Build 0)  -->
<svg version="1.1" id="Layer_1" xmlns="http://www.w3.org/2000/svg" xmlns:xlink="http://www.w3.org/1999/xlink" x="0px" y="0px"
	 viewBox="0 0 455 368" style="enable-background:new 0 0 455 368;" xml:space="preserve">
<g>
	<path style="fill:#0D0D0D;fill-opacity:0.37;" d="M446.3,80.1c-0.3-0.9-0.8-1.6-1.5-2.2c-0.7-0.6-1.6-0.9-2.5-0.9s-1.8,0.2-2.5,0.7
		c-0.7,0.5-1.3,1.2-1.6,2.1c-5.4,14.7-14.4,27.8-26.2,38.1c-11.8,10.3-26.1,17.4-41.4,20.7c-38,7.3-72.5,27-98.1,56.1
		c-25.5,29.1-40.6,65.9-42.9,104.5c0,0.6-0.2,1.1-0.6,1.5c-0.4,0.4-0.9,0.6-1.5,0.6c-0.6,0-1.1-0.2-1.5-0.6
		c-0.4-0.4-0.6-0.9-0.6-1.5c-2.3-38.6-17.4-75.4-42.9-104.5s-60.1-48.8-98.1-56.1C69.1,135.4,54.8,128.3,43,118
		c-11.8-10.3-20.8-23.4-26.2-38.1c-0.3-0.8-0.9-1.6-1.6-2.1c-0.7-0.5-1.6-0.8-2.5-0.7c-0.9,0-1.8,0.3-2.5,0.9
		c-0.7,0.6-1.2,1.3-1.5,2.2C2.9,100.4,0,121.4,0,142.5c0,15.9,1.7,31.8,5,47.3h0.2c9.4,42.9,31,82.2,62.4,113.1
		c31.3,30.8,71,51.9,114.1,60.6h0.1c2,0.4,3.8,0.7,5.7,1.1l3.9,0.6c1.2,0.2,2.3,0.4,3.4,0.5c10.7,1.5,21.6,2.3,32.4,2.3
		c5.1,0,10.1-0.2,15.1-0.5h0.3l3.5-0.3l2.7-0.2c48-4.3,93.5-23.8,129.6-55.6c36.2-31.9,61.2-74.5,71.5-121.6h0.2
		C457.8,153.4,456.5,115.8,446.3,80.1L446.3,80.1z"/>
	<path style="fill:#0D0D0D;" d="M227.5,143c39.5,0,71.5-32,71.5-71.5C299,32,267,0,227.5,0S156,32,156,71.5
		C156,111,188,143,227.5,143z"/>
</g>
</svg>
