<?xml version="1.0" encoding="utf-8"?>
<!-- Generator: Adobe Illustrator 25.2.0, SVG Export Plug-In . SVG Version: 6.00 Build 0)  -->
<svg version="1.1" id="Layer_1" xmlns="http://www.w3.org/2000/svg" xmlns:xlink="http://www.w3.org/1999/xlink" x="0px" y="0px"
	 viewBox="0 0 30 34" style="enable-background:new 0 0 30 34;" xml:space="preserve">
<path d="M23.2,34c-1.2-0.5-1-1.5-1-2.4c0-0.8,0.5-1.2,1.2-1.4c0-0.6,0-1.2,0-1.9c-1,0.1-1.8-0.3-1.9-1.5c-3,1.2-6,1.4-9.1,0.8
	c-2.8-0.6-5.1-1.9-6.9-4.1c-1.7-2-3.4-4.1-5.1-6.1c-0.5-0.6-0.5-1,0.1-1.5c1.2-1.1,2.4-2.3,3.5-3.6c1-1.1,1.8-2.3,2.8-3.3
	c2-2.1,4.7-2.5,7.3-1.3c0.8,0.4,1.6,0.5,2.4,0.1c2.8-1.4,5.3-1,7.6,1c0.1,0.1,0.2,0.1,0.3,0.2c0.8-0.3,1-0.8,0.9-1.6
	c-0.1-2.1,0-4.2,0-6.3c0-0.4,0.2-0.8,0.4-1.1c0.1,0,0.1,0,0.2,0c0.2,0.3,0.5,0.7,0.5,1c0.1,2.2,0,4.5,0,6.7c0,0.3,0,0.7,0.2,0.8
	c0.8,0.5,1.1,1.3,1,2.1c2,0.7,2.5,1.4,2.5,3.5c0,4,0,8,0,12c0,1.7-0.1,1.8-1.9,2.2c0,0.5,0,0.9,0,1.4c0,0.2,0.1,0.4,0.3,0.5
	c1.4,0.9,1.4,2.8-0.1,3.7C26.6,34,24.9,34,23.2,34z M28.9,27c0-4.6,0-9.1,0-13.7c0-0.9-0.7-1.5-1.5-1.5c-1,0-2,0-3,0
	c-0.8,0-1.3,0.4-1.5,1c0.4,0.3,0.7,0.6,0.9,0.8c-0.3,0.3-0.6,0.5-1,0.9c0,0.1,0,0.5,0,0.9c0.4,0,0.8-0.1,1.1,0
	c0.2,0.1,0.4,0.4,0.6,0.5c-0.2,0.2-0.4,0.4-0.6,0.5c-0.3,0.1-0.7,0-1.1,0c0,0.4,0,0.8,0,1.2c0.1-0.1,0.1-0.1,0.2-0.1
	c0.3,0.3,0.6,0.5,0.8,0.7c-0.3,0.3-0.6,0.5-1,0.9c0,0.2,0,0.5,0,0.9c0.4,0,0.8-0.1,1.2,0c0.2,0.1,0.5,0.3,0.5,0.5
	c0,0.2-0.3,0.5-0.5,0.5c-0.4,0.1-0.8,0.1-1.2,0.1c0,0.4,0,0.7,0,1.1c0.1,0,0.1-0.1,0.2-0.1c0.3,0.2,0.6,0.5,0.8,0.7
	c-0.3,0.3-0.6,0.5-1,0.9c0,0.1,0,0.5,0,0.9c0.4,0,0.8-0.1,1.1,0c0.2,0.1,0.4,0.3,0.6,0.5c-0.2,0.2-0.4,0.5-0.6,0.6
	c-0.3,0.1-0.7,0-1.1,0c0,0.4,0,0.8,0,1.2C24.8,27,26.8,27,28.9,27z M1.8,17.3C3.4,19.2,5,21.1,6.6,23c3.5,4.2,10.1,4.7,14.4,2.7
	c0.2-0.1,0.5-0.3,0.5-0.5c0-1.6,0-3.2,0-4.8c-3.2,0.8-6.2,1-9.3,0.6c-3.1-0.4-6.1-1.3-8.6-3.3C3.1,17.1,2.6,16.9,1.8,17.3z M24,10.7
	c-1.2-2.2-4.1-3.3-6.4-2.2c-1.6,0.7-3,0.9-4.5,0c-0.4-0.2-0.8-0.3-1.2-0.3c-1.7-0.2-3.2,0.2-4.4,1.5c-0.9,1-1.7,2.1-2.5,3.1
	c-0.9,1.1-1.7,2.1-2.6,3.2c2.3-0.2,4.4-1,6.1-2.4c1.8-1.5,3.7-2,6-1.2c0.6,0.2,1.5,0.1,2.2-0.1c1.6-0.4,3-0.4,4.4,0.6
	c0.1,0.1,0.2,0.1,0.4,0.2C21.9,11.6,22.8,10.9,24,10.7z M21.5,15.9C21.2,16,21,16,20.8,16.1c-4.2,0.7-8.4,0.8-12.5-0.5
	c-0.2-0.1-0.4-0.1-0.5-0.1c-1.1,0.4-2.1,0.9-3.2,1.3c0,0.1,0.1,0.1,0.1,0.1c0.1,0.1,0.2,0.2,0.3,0.2c5,3.1,10.5,3.4,16.1,2
	c0.2,0,0.4-0.3,0.4-0.5C21.5,17.9,21.5,16.9,21.5,15.9z M9.1,14.7c4.2,1.1,8.3,1.1,12.5,0c-1.3-1.3-2.6-2-4.3-1.4
	c-1.3,0.4-2.5,0.5-3.8,0C11.8,12.6,10.4,13.4,9.1,14.7z M23.4,32.7c1.7,0,3.2,0,4.8,0c0-0.4,0-0.9,0-1.3c-1.6,0-3.1,0-4.7,0
	C23.4,31.9,23.4,32.2,23.4,32.7z M24.6,30.2c0.8,0,1.6,0,2.3,0c0-0.7,0-1.3,0-1.9c-0.8,0-1.6,0-2.4,0c0,0.5,0,0.9,0,1.2
	C24.6,29.7,24.6,29.9,24.6,30.2z M26.4,10.7c-0.1-0.4-0.2-0.8-0.4-1.1c-0.1-0.1-0.6-0.1-0.7,0c-0.2,0.3-0.2,0.7-0.3,1.1
	C25.6,10.7,25.9,10.7,26.4,10.7z M18.8,22.1c0.3,0.4,0.5,0.6,0.7,0.9c0.2,0.4,0.3,0.9,0.3,1.3c0,0-0.6,0.2-0.6,0.2
	c-0.3-0.6-0.7-1.1-0.9-1.8C18.3,22.6,18.6,22.4,18.8,22.1z M14.8,24c0,0.2,0.1,0.4,0,0.6c-0.1,0.2-0.4,0.3-0.6,0.5
	c-0.2-0.3-0.5-0.6-0.5-0.9c-0.1-0.5-0.2-1.1,0.5-1.3c0.2-0.1,0.5,0.2,0.6,0.4C14.9,23.5,14.8,23.8,14.8,24C14.8,24,14.8,24,14.8,24z
	 M12.8,22.8c-0.5,0.6-1,1.2-1.4,1.7c-0.2-0.2-0.5-0.4-0.5-0.5c0.3-0.6,0.7-1.1,1-1.7C12.1,22.4,12.4,22.6,12.8,22.8z M17.1,24
	c0,0.2,0,0.5-0.1,0.7c-0.1,0.2-0.3,0.4-0.5,0.4c-0.2,0-0.5-0.3-0.5-0.4c-0.1-0.4-0.1-0.9,0-1.2c0-0.2,0.3-0.5,0.5-0.5
	c0.2,0,0.4,0.3,0.5,0.5C17.1,23.5,17.1,23.7,17.1,24L17.1,24z"/>
</svg>
