<?xml version="1.0" encoding="utf-8"?>
<!-- Generator: Adobe Illustrator 25.2.0, SVG Export Plug-In . SVG Version: 6.00 Build 0)  -->
<svg version="1.1" id="Layer_1" xmlns="http://www.w3.org/2000/svg" xmlns:xlink="http://www.w3.org/1999/xlink" x="0px" y="0px"
	 viewBox="0 0 28.2 19.7" style="enable-background:new 0 0 28.2 19.7;" xml:space="preserve">
<path d="M2.1,0C1,0,0,1,0,2.1v15.5c0,1.2,1,2.1,2.1,2.1h23.9c1.2,0,2.1-1,2.1-2.1V2.1c0-1.2-1-2.1-2.1-2.1H2.1z M3.8,3.2
	c0.2,0,0.4,0.1,0.6,0.2l8.7,8.6c0.5,0.5,1.4,0.5,2,0l8.7-8.6c0.3-0.3,0.7-0.3,1,0c0.3,0.3,0.3,0.7,0,1c0,0,0,0,0,0L19.1,10l5.7,5.4
	c0.3,0.3,0.3,0.7,0,1c-0.3,0.3-0.7,0.3-1,0l-5.8-5.4l-2,2c-1.1,1.1-2.9,1.1-4,0l-2-2l-5.7,5.4c-0.3,0.3-0.7,0.2-1,0
	c-0.3-0.3-0.2-0.7,0-1L9.1,10L3.4,4.4c-0.3-0.3-0.3-0.7,0-1C3.5,3.2,3.6,3.2,3.8,3.2z"/>
</svg>
