<?xml version="1.0" encoding="utf-8"?>
<!-- Generator: Adobe Illustrator 25.2.0, SVG Export Plug-In . SVG Version: 6.00 Build 0)  -->
<svg version="1.1" id="Layer_1" xmlns="http://www.w3.org/2000/svg" xmlns:xlink="http://www.w3.org/1999/xlink" x="0px" y="0px"
	 viewBox="0 0 26.7 31" style="enable-background:new 0 0 26.7 31;" xml:space="preserve">
<path d="M14.2,0c0.6,0.1,1.2,0.2,1.8,0.3c1.2,0.2,2.3,0.6,3.4,1.1c0.3,0.2,0.5,0.4,0.3,0.7c-0.1,0.3-0.4,0.4-0.7,0.2
	C17.3,1.5,15.5,1,13.6,1c-4,0.1-7.5,1.4-10.2,4.4c-2.4,2.7-3,5.8-1.9,9.3c0.1,0.2,0.1,0.4,0.2,0.5c0,0,0,0.1,0.1,0.1
	c0-0.5-0.1-1-0.1-1.5c-0.1-1.4,0.2-2.7,0.7-4c0-0.1,0.1-0.3,0.2-0.3c0.2-0.1,0.4-0.1,0.6,0c0.3,0.1,0.3,0.4,0.2,0.6
	c-0.1,0.5-0.3,1-0.4,1.4c-0.3,1.2-0.3,2.5,0,3.7c0,0.1,0,0.2,0.1,0.3c0.3-2.6,1.8-4.4,3.8-5.8C8,8.8,9.5,8,11.1,7.4
	c0.1,0,0.2-0.1,0.3-0.2C11,7.1,10.5,7.1,10.1,7C9.6,7,9.2,6.9,8.7,7C7.5,7.1,6.3,7.2,5,7.4c-0.1,0-0.2,0.1-0.3,0.2
	C4.5,7.9,4.3,8.2,4,8.5C3.8,8.8,3.6,8.9,3.3,8.7C3.1,8.5,3,8.3,3.2,8c1.7-2.6,4.1-4.2,7.1-5c2.3-0.6,4.6-0.5,6.9,0.2
	c0.1,0,0.2,0.1,0.3,0.1c0.3,0.1,0.4,0.4,0.3,0.6c-0.1,0.3-0.3,0.4-0.6,0.3c-0.4-0.1-0.9-0.3-1.3-0.4c-3.5-0.7-6.6,0-9.5,2.1
	C6.3,6,6.2,6.1,6.2,6.1c0,0,0,0,0,0.1c0.4,0,0.8-0.1,1.2-0.1c1.8-0.2,3.6,0,5.4,0.5c0.5,0.1,1,0.3,1.4,0.4c0.3,0.1,0.5,0.3,0.4,0.6
	c-0.1,0.3-0.3,0.4-0.7,0.3c-0.4-0.2-0.8-0.1-1.2,0c-2.3,0.8-4.5,1.8-6.4,3.4c-1.2,1-2.1,2.2-2.4,3.7c-0.2,1-0.1,2.1,0,3.1
	c0.3,2.2,0.9,4.4,2,6.4c1.3,2.5,3.4,4.3,6.1,5.3c1.4,0.5,2.7,0.3,4-0.4c2.5-1.4,4.4-3.4,5.5-6.1c0.8-2,1.3-4.1,1.5-6.3
	c0.2-2-0.5-3.7-1.9-5.2c-0.1-0.1-0.1-0.1-0.2-0.2c-0.2-0.2-0.2-0.5,0-0.7c0.2-0.2,0.5-0.2,0.7,0c1.2,1.1,2.1,2.5,2.4,4.1
	c0,0.1,0,0.3,0.1,0.5c0.3-1.3,0.3-2.5,0.1-3.8c-0.2-0.9-0.5-1.7-0.9-2.5C23,9,23,8.7,23.3,8.6c0.3-0.1,0.5-0.1,0.7,0.3
	c0.6,1.1,0.9,2.2,1.1,3.5c0.1,1.1,0.1,2.1-0.1,3.2c0.1-0.3,0.2-0.5,0.3-0.8c0.1-0.3,0.2-0.5,0.2-0.8c0.5-2.2,0.4-4.3-0.7-6.4
	C24.7,7.3,24.7,7,25,6.9c0.3-0.1,0.5,0,0.7,0.3c1.2,2.4,1.3,4.9,0.6,7.4c-0.5,1.9-1.4,3.6-2.6,5.2c-0.1,0.1-0.2,0.3-0.2,0.5
	c-0.4,1.5-0.9,3-1.6,4.4c-1.3,2.6-3.3,4.5-5.9,5.7c-1.9,0.9-3.7,0.7-5.5-0.3c-3-1.6-5.1-3.9-6.2-7.1c-0.3-0.9-0.6-1.9-0.9-2.8
	c0-0.1-0.1-0.3-0.2-0.4C1.7,18,0.7,16,0.2,13.7C-0.4,10.4,0.4,7.5,2.5,5c2.1-2.5,4.8-3.9,7.9-4.6c0.6-0.1,1.3-0.2,2-0.3
	c0.1,0,0.1,0,0.2,0C13.1,0,13.6,0,14.2,0z M24,0c0.9,0.8,1.7,1.7,2.6,2.5c0.2,0.2,0.2,0.5,0,0.7c-0.2,0.2-0.5,0.2-0.7,0
	c-0.1-0.1-0.2-0.2-0.2-0.2c-0.3,0.3-0.5,0.5-0.8,0.8c0,0,0.1,0.1,0.2,0.2c0.4,0.4,0.4,1,0,1.4c-0.5,0.5-1,1-1.5,1.5
	c-1.2,1.2-2.4,2.4-3.6,3.6c-0.6,0.6-1,0.6-1.7,0c0,0,0,0-0.1-0.1c-0.4,0.5-0.9,0.6-1.5,0.3c-0.3,0.3-0.6,0.7-1,1
	c-0.2,0.2-0.3,0.3-0.6,0.2c-0.3-0.1-0.4-0.5-0.1-0.8c0.3-0.3,0.7-0.6,1-1c-0.4-0.6-0.2-1.1,0.3-1.5c-0.1-0.1-0.1-0.1-0.2-0.2
	c-0.4-0.4-0.4-1,0-1.4c0.4-0.4,0.9-0.9,1.3-1.3c1.2-1.3,2.5-2.5,3.8-3.8c0.6-0.6,1-0.6,1.7,0c0,0,0,0,0.1,0.1
	c0.1-0.1,0.1-0.1,0.2-0.2c0.2-0.2,0.4-0.4,0.6-0.5c-0.5-0.7-0.5-0.9,0-1.1C23.9,0,23.9,0,24,0z M20.5,8.6c-0.5-0.6-0.6-0.8-0.3-1.1
	c0.5-0.4,0.7,0.1,1.1,0.4c0.1-0.1,0.2-0.2,0.3-0.3c-0.3-0.3-0.5-0.5-0.8-0.8c-0.3-0.3-0.3-0.5-0.1-0.7c0.2-0.2,0.5-0.2,0.7,0.1
	c0.3,0.3,0.5,0.5,0.8,0.8c0.1-0.1,0.2-0.2,0.3-0.3c-0.2-0.3-0.8-0.6-0.3-1c0.4-0.5,0.7,0.1,1.1,0.3c0.1-0.1,0.2-0.2,0.3-0.3
	C23,5.5,22.8,5.3,22.6,5c-0.3-0.3-0.3-0.6-0.1-0.8C22.7,4,23,4,23.3,4.4c0.2,0.2,0.5,0.5,0.6,0.7c0.2-0.1,0.3-0.3,0.4-0.3
	c-0.8-0.8-1.5-1.5-2.2-2.2c-1.7,1.7-3.5,3.5-5.2,5.2c0.7,0.7,1.5,1.5,2.2,2.2c0.1-0.1,0.3-0.2,0.4-0.3C19.2,9.2,19,9,18.7,8.7
	c-0.2-0.3-0.3-0.5-0.1-0.7c0.2-0.2,0.5-0.2,0.7,0.1c0.3,0.3,0.5,0.5,0.8,0.8C20.3,8.7,20.4,8.7,20.5,8.6z M23.7,2.6
	C23.9,2.7,24,2.9,24.1,3c0.3-0.3,0.5-0.5,0.8-0.7c-0.2-0.2-0.3-0.3-0.4-0.5C24.2,2.1,23.9,2.3,23.7,2.6z M16.8,9.4
	c0.2,0.2,0.3,0.4,0.5,0.5c0.1-0.1,0.1-0.1,0.2-0.2c-0.2-0.2-0.3-0.4-0.5-0.5C16.9,9.3,16.9,9.3,16.8,9.4z M13.4,23.1
	c0.6,0.2,1.3,0.4,1.9,0.6c0.4,0.1,0.8,0.3,1.1,0.5c0.4,0.2,0.5,0.5,0.2,0.8c-0.6,0.7-1.3,1.3-2.1,1.8c-0.7,0.4-1.5,0.4-2.2,0
	c-0.8-0.5-1.5-1.1-2.1-1.8c-0.2-0.3-0.2-0.6,0.1-0.7c1-0.5,1.9-0.9,3-1C13.2,23.2,13.3,23.2,13.4,23.1
	C13.4,23.2,13.4,23.1,13.4,23.1z M15.4,24.8c-1.2-0.8-3.1-0.8-4.1,0.1c0.5,0.4,1,0.8,1.6,1.1c0.2,0.1,0.6,0.1,0.8,0.1
	C14.4,25.8,14.9,25.3,15.4,24.8z M20.4,14.8c-0.2,1.2-0.9,1.9-1.9,1.9c-1,0.1-1.6-0.5-2-1.9c-0.1,0-0.2,0.1-0.2,0.1
	c-0.3,0.2-0.5,0.2-0.7-0.1c-0.2-0.2-0.2-0.5,0.1-0.7c0.5-0.3,1-0.6,1.6-0.7c1.3-0.3,2.5-0.2,3.7,0.5c0.1,0.1,0.2,0.1,0.3,0.2
	c0.3,0.2,0.3,0.5,0.2,0.7c-0.2,0.2-0.5,0.3-0.8,0C20.5,14.9,20.4,14.9,20.4,14.8z M19.4,14.9c0-0.5-0.1-0.6-0.4-0.6
	c-0.4,0-0.8,0-1.2,0c-0.1,0-0.2,0.1-0.3,0.2c-0.1,0.4,0,0.7,0.3,1c0.3,0.3,0.6,0.3,1,0.1C19.2,15.5,19.3,15.2,19.4,14.9z M6.3,14.8
	c-0.1,0.1-0.2,0.1-0.2,0.1c-0.3,0.2-0.6,0.2-0.7-0.1c-0.2-0.2-0.1-0.5,0.2-0.7c0.5-0.3,1-0.6,1.5-0.7c1.3-0.3,2.5-0.2,3.7,0.5
	c0.1,0.1,0.3,0.2,0.4,0.3c0.2,0.2,0.2,0.5,0,0.7c-0.2,0.2-0.4,0.2-0.7,0.1c-0.1-0.1-0.2-0.1-0.3-0.2c-0.3,1.3-0.9,1.9-1.9,1.9
	C7.3,16.8,6.6,16.1,6.3,14.8z M9.2,14.9c0-0.4-0.1-0.5-0.4-0.5c-0.4,0-0.8,0-1.1,0c-0.2,0-0.3,0.1-0.3,0.3c-0.1,0.4,0.1,0.7,0.4,0.9
	c0.3,0.2,0.6,0.3,1,0.1C9.1,15.5,9.2,15.2,9.2,14.9z M11.3,11.9c-0.6,0-1.1,0-1.7,0c-0.4,0-0.6-0.2-0.6-0.5C9,11.1,9.2,11,9.6,11
	c1.1,0,2.3,0,3.4,0c0.4,0,0.6,0.2,0.6,0.5c0,0.3-0.2,0.5-0.6,0.5C12.4,11.9,11.9,11.9,11.3,11.9z M13.4,22c-0.7,0-1.4-0.3-1.8-0.9
	c-0.2-0.2-0.2-0.5,0-0.7c0.2-0.2,0.5-0.2,0.7,0c0.1,0,0.1,0.1,0.1,0.2c0.6,0.6,1.3,0.6,1.9,0c0.4-0.3,0.6-0.4,0.9-0.1
	c0.2,0.3,0.2,0.5-0.2,0.8C14.5,21.7,14,21.9,13.4,22z M13.4,10c-0.4,0-0.7,0-1.1,0c-0.3,0-0.5-0.2-0.5-0.5c0-0.3,0.2-0.5,0.5-0.5
	c0.7,0,1.5,0,2.2,0c0.3,0,0.5,0.2,0.5,0.5c0,0.3-0.2,0.5-0.5,0.5C14.1,10,13.7,10,13.4,10z"/>
</svg>
