<?xml version="1.0" encoding="utf-8"?>
<!-- Generator: Adobe Illustrator 25.2.0, SVG Export Plug-In . SVG Version: 6.00 Build 0)  -->
<svg version="1.1" id="Layer_1" xmlns="http://www.w3.org/2000/svg" xmlns:xlink="http://www.w3.org/1999/xlink" x="0px" y="0px"
	 viewBox="0 0 30 30" style="enable-background:new 0 0 30 30;" xml:space="preserve">
<path d="M23.5,26c0,1.2,0,2.3,0,3.4c0,0.5-0.2,0.6-0.7,0.6c-3.2,0-6.5,0-9.7,0c-2.9,0-5.8,0-8.7,0c-0.6,0-0.7-0.1-0.7-0.7
	c0-0.7,0-1.5,0-2.2c0-0.5,0.1-1,0.2-1.6c-0.2-0.1-0.5-0.1-0.7-0.2c-0.7-0.3-1.4-0.6-2-1c-1.3-0.9-1.6-2.2-1-3.6c0.4-1,1-1.7,1.6-2.5
	c0.5-0.7,1.1-1.5,1.6-2.3c0.7-1.4,0.9-2.9,0.9-4.4c0-0.5,0-1-0.1-1.5c0-0.4,0.2-0.6,0.5-0.6c0.3,0,0.5,0.2,0.5,0.6
	c0.2,1.9,0.1,3.7-0.5,5.5c-0.4,1-0.9,2-1.6,2.8c-0.4,0.6-0.9,1.1-1.3,1.7c-0.3,0.5-0.6,1-0.7,1.5c-0.2,0.7,0,1.4,0.5,1.9
	c0.7,0.7,1.6,1,2.6,1.3c0.3,0.1,0.6,0.1,0.9-0.2c0.6-0.6,1.3-0.8,2.2-0.8c1,0,2,0,3,0c0-0.1,0-0.2,0-0.3c0-1,0-2,0-2.9
	c0-0.2-0.1-0.3-0.2-0.4c-1.8-1.3-2.7-3-2.7-5.2c0-1.5,0-3,0-4.4c0-0.4,0.1-0.6,0.6-0.6c1.5-0.1,2.7-1,3.1-2.4
	c0.1-0.5,0.1-0.9,0.2-1.4c0-0.3,0.1-0.5,0.4-0.6c0.3-0.1,0.5,0.1,0.6,0.3c0.6,0.9,1.3,1.7,2.2,2.4c0,0,0,0,0.1,0
	c0.3,0.2,0.3,0.5,0.2,0.7C14.4,9,14.1,9,13.8,8.8c-0.5-0.4-1-0.9-1.5-1.3c-0.1-0.1-0.2-0.2-0.3-0.3c-0.5,2-1.8,3.1-3.8,3.5
	c0,0,0,0,0,0.1c0,1.5,0,3,0,4.5c0.1,2.3,2.2,4.4,4.5,4.7c3.1,0.4,5.9-1.6,6.3-4.8c0.1-0.9,0-1.7,0-2.6c0-0.5,0-1,0-1.5
	c0-0.3,0.2-0.5,0.5-0.5c0.3,0,0.5,0.2,0.5,0.5c0,1.4,0.1,2.8-0.1,4.2c-0.2,1.9-1.1,3.4-2.6,4.5c-0.2,0.1-0.3,0.3-0.3,0.5
	c0,0.7,0,1.5,0,2.2c0,0.1,0,0.3,0.1,0.3c1,0.9,2,1.8,3.3,2.1c1.9,0.4,3.7,0,5.2-1.3c0.8-0.7,1.1-1.6,1.3-2.6c0.3-2.1-0.3-4-1.6-5.6
	c-0.6-0.7-1.2-1.4-1.8-2.2c-0.7-0.9-1.1-2-1.1-3.2c0-0.3,0-0.6,0-0.8c0-0.4,0.1-0.6,0.4-0.6c0.3,0,0.5,0.2,0.6,0.6
	c0.1,0.6,0.1,1.3,0.2,1.9c0.2,0.9,0.7,1.7,1.3,2.4c0.8,1,1.7,1.9,2.3,3c1,2,1.1,4,0.4,6.1c-0.5,1.6-1.8,2.5-3.3,3.1
	C24.1,25.8,23.8,25.9,23.5,26z M22.6,29c0-0.6,0-1.2,0-1.8c0-0.3,0-0.5-0.1-0.8c0-0.2-0.1-0.3-0.3-0.2c-1.8,0.1-3.4-0.5-4.7-1.7
	c-0.1-0.1-0.2-0.2-0.3-0.3c0,0.1-0.1,0.1-0.1,0.1c-0.3,1.4-1.5,2.6-3.2,2.7c-1.5,0.1-2.9-0.9-3.4-2.3c0-0.1-0.2-0.2-0.3-0.2
	c-1,0-2,0-3,0c-1.1,0-2.1,0.8-2.2,1.9c-0.1,0.8-0.1,1.7-0.1,2.6C10.7,29,16.6,29,22.6,29z M11.2,20.6c0,0.9,0,1.8,0,2.6
	c0,0.3,0,0.5,0,0.8c0.2,1.2,1.4,2.1,2.6,2c1.3-0.1,2.3-1.1,2.3-2.4c0-0.9,0-1.9,0-2.8c0,0,0-0.1,0-0.1
	C14.5,21.2,12.8,21.2,11.2,20.6z M25.6,2.4c0.5-0.3,1.1-0.7,1.7-1C27.1,1.2,27,1,26.9,0.8c-0.2-0.3-0.1-0.6,0.1-0.7
	c0.2-0.1,0.5-0.1,0.7,0.2c0.7,1.2,1.5,2.3,2.2,3.5C30.1,4,30,4.3,29.8,4.5c-0.2,0.1-0.5,0.1-0.7-0.2c-0.1-0.2-0.2-0.4-0.4-0.6
	c-0.6,0.4-1.1,0.7-1.7,1c0.1,0.6,0.1,0.6-0.4,0.9c-2.9,1.8-5.8,3.6-8.7,5.5c-0.3,0.2-0.6,0.2-0.9,0.1c-0.4-0.1-0.9-0.2-1.3-0.3
	c-0.1,0-0.3,0-0.5,0.1c-0.3,0.1-0.5,0.3-0.8,0.5c-0.3,0.2-0.6,0.1-0.7-0.1c-0.2-0.2-0.1-0.6,0.2-0.7c0.9-0.4,1.2-1.1,1.3-2
	c0-0.5,0.3-0.9,0.8-1.2c2.8-1.7,5.6-3.5,8.5-5.3C25,2,25.1,2,25.6,2.4z M17.2,10.3C17.1,10.1,17,10,17,9.8c-0.2-0.3-0.1-0.6,0.1-0.7
	C17.3,9,17.6,9,17.8,9.3c0.1,0.2,0.2,0.4,0.4,0.6c0.2-0.2,0.5-0.3,0.7-0.4c-0.1-0.2-0.3-0.4-0.4-0.6c-0.1-0.3-0.1-0.5,0.1-0.7
	c0.2-0.1,0.5-0.1,0.7,0.2c0.1,0.2,0.2,0.4,0.4,0.6c0.2-0.2,0.4-0.3,0.7-0.4c-0.1-0.2-0.3-0.4-0.4-0.6c-0.1-0.3-0.1-0.5,0.1-0.7
	c0.2-0.2,0.5-0.1,0.7,0.2c0.1,0.2,0.2,0.4,0.4,0.6c0.2-0.1,0.4-0.3,0.7-0.4c-0.1-0.1-0.2-0.3-0.2-0.4c-0.3-0.4-0.3-0.7,0-0.9
	c0.3-0.2,0.5-0.1,0.8,0.4c0.1,0.1,0.2,0.2,0.2,0.4c0.2-0.1,0.4-0.3,0.7-0.4c-0.4-0.6-0.7-1.1-1-1.7c0,0-0.1,0-0.1,0
	c-1.9,1.2-3.9,2.4-5.8,3.6c-0.1,0-0.1,0.1-0.2,0.2C16.2,9.2,16.1,9.6,16,10C16.4,10.1,16.8,10.2,17.2,10.3z M24.2,6.1
	c0.6-0.4,1.1-0.7,1.7-1.1c-0.4-0.6-0.7-1.1-1.1-1.7c-0.6,0.4-1.1,0.7-1.7,1.1C23.5,4.9,23.9,5.5,24.2,6.1z M27.7,2.2
	c-0.6,0.4-1.1,0.7-1.7,1.1c0.2,0.2,0.3,0.5,0.4,0.7c0.6-0.4,1.1-0.7,1.7-1.1C28,2.7,27.9,2.4,27.7,2.2z M4.3,7.6
	c0.1-1.1,0.4-2,1-2.9c1.3-2.1,3.2-3.5,5.6-4.2c1.1-0.3,2.2-0.2,3.3-0.2c2.3,0.1,4.4,0.9,6.1,2.5c0,0,0.1,0.1,0.1,0.1
	c0.2,0.2,0.2,0.4,0,0.6c-0.2,0.2-0.4,0.3-0.7,0.1c-0.3-0.2-0.5-0.4-0.7-0.6c-1.5-1.2-3.3-1.8-5.2-1.8c-1,0-2-0.1-3,0.2
	C8.2,2.5,6.3,4.2,5.4,6.9C5.3,7.1,5.3,7.4,5.3,7.6c0,0.4-0.2,0.6-0.5,0.6C4.4,8.2,4.2,8,4.3,7.6z M13.7,18.5
	c-0.9-0.1-1.6-0.5-2.3-1.1c-0.1-0.1-0.1-0.4,0-0.5c0.1-0.2,0.3-0.1,0.5,0c0.3,0.2,0.6,0.4,0.9,0.6c0.5,0.3,1.1,0.4,1.7,0
	c0.3-0.2,0.6-0.4,0.9-0.7c0.2-0.1,0.4-0.1,0.5,0c0.1,0.1,0.1,0.4,0,0.5C15.3,18,14.6,18.4,13.7,18.5z M11.2,14.5
	c-0.6,0-1.1-0.2-1.6-0.4c-0.2-0.1-0.4-0.3-0.2-0.6c0.1-0.3,0.4-0.2,0.6-0.1c0.8,0.5,1.6,0.5,2.4,0c0.2-0.1,0.4-0.2,0.6,0.1
	c0.2,0.2,0,0.4-0.2,0.6C12.3,14.4,11.7,14.5,11.2,14.5z M16.1,14.5c-0.6,0-1.1-0.2-1.6-0.5c-0.2-0.1-0.3-0.3-0.2-0.5
	c0.1-0.2,0.3-0.3,0.6-0.1c0.8,0.5,1.6,0.5,2.5,0c0.2-0.1,0.4-0.1,0.6,0.1c0.1,0.2,0,0.4-0.2,0.5C17.2,14.4,16.7,14.5,16.1,14.5z"/>
</svg>
