<?xml version="1.0" encoding="utf-8"?>
<!-- Generator: Adobe Illustrator 25.2.0, SVG Export Plug-In . SVG Version: 6.00 Build 0)  -->
<svg version="1.1" id="Layer_1" xmlns="http://www.w3.org/2000/svg" xmlns:xlink="http://www.w3.org/1999/xlink" x="0px" y="0px"
	 viewBox="0 0 19.4 24.6" style="enable-background:new 0 0 19.4 24.6;" xml:space="preserve">
<path d="M13.2,9.7c0,1.9-1.6,3.5-3.5,3.5c-1.9,0-3.5-1.6-3.5-3.5c0-1.9,1.6-3.5,3.5-3.5C11.6,6.2,13.2,7.8,13.2,9.7z M19.4,9.7
	c0,6.5-8.7,14.4-9.1,14.7c-0.4,0.3-0.9,0.3-1.1,0C8.7,24.1,0,16.2,0,9.7C0,4.3,4.3,0,9.7,0C15.1,0,19.4,4.3,19.4,9.7z M15,9.7
	c0-2.9-2.4-5.3-5.3-5.3c-2.9,0-5.3,2.4-5.3,5.3c0,2.9,2.4,5.3,5.3,5.3C12.6,15,15,12.6,15,9.7z"/>
</svg>
