<?xml version="1.0" encoding="utf-8"?>
<!-- Generator: Adobe Illustrator 25.2.0, SVG Export Plug-In . SVG Version: 6.00 Build 0)  -->
<svg version="1.1" id="Layer_1" xmlns="http://www.w3.org/2000/svg" xmlns:xlink="http://www.w3.org/1999/xlink" x="0px" y="0px"
	 viewBox="0 0 25.1 24.9" style="enable-background:new 0 0 25.1 24.9;" xml:space="preserve">
<path d="M20.9,19.4l-3.2-2.5c-0.7-0.5-1.6-0.4-2.2,0.2c-0.6,0.7-1,1.1-1.1,1.2c-1,1-3-0.4-5.2-2.6c-2.2-2.1-3.6-4.1-2.6-5.1
	c0.1-0.1,0.6-0.5,1.2-1.1C8.5,9,8.6,8,8.1,7.4L5.5,4.2C5.1,3.6,4.3,3.5,3.7,3.7C2.8,4.1,1.2,5.4,0.8,5.8c-2.3,2.3,0.6,7.6,5.7,12.7
	c5.1,5.1,10.5,7.9,12.8,5.6c0.4-0.4,1.7-2,2.1-2.8C21.6,20.6,21.5,19.9,20.9,19.4z M13,8.2c-0.7-0.2-1.3,0.4-1.3,1.1
	c0,0.4,0.4,0.8,0.8,0.9c0.6,0.1,1.1,0.4,1.5,0.8s0.7,0.9,0.8,1.5c0.1,0.4,0.5,0.8,1,0.8c0.7,0.1,1.2-0.6,1.1-1.3
	c-0.2-0.9-0.7-1.8-1.4-2.5C14.8,8.9,13.9,8.4,13,8.2z M20,13.6c0.6,0.1,1.2-0.5,1.1-1.1c-0.2-2.1-1.1-4.2-2.7-5.8
	c-1.6-1.6-3.7-2.5-5.8-2.7c-0.6-0.1-1.2,0.5-1.1,1.1c0,0.5,0.4,0.9,1,1C14,6.3,15.6,7,16.9,8.2c1.3,1.3,2,2.9,2.1,4.5
	C19,13.2,19.4,13.6,20,13.6z M21.2,3.9c-2.5-2.5-5.8-3.8-9.1-3.9c-0.6,0-1.1,0.5-1.1,1.1c0,0.5,0.5,0.9,1,1c2.8,0.1,5.5,1.2,7.6,3.3
	c2.1,2.1,3.2,4.8,3.3,7.5c0,0.5,0.4,1,1,1c0.6,0.1,1.1-0.4,1.1-1C25,9.6,23.7,6.4,21.2,3.9z"/>
</svg>
