<?xml version="1.0" encoding="utf-8"?>
<!-- Generator: Adobe Illustrator 25.2.0, SVG Export Plug-In . SVG Version: 6.00 Build 0)  -->
<svg version="1.1" id="Layer_1" xmlns="http://www.w3.org/2000/svg" xmlns:xlink="http://www.w3.org/1999/xlink" x="0px" y="0px"
	 viewBox="0 0 17 16" style="enable-background:new 0 0 17 16;" xml:space="preserve">
<path d="M14.8,0H2.2C1.6,0,1,0.2,0.6,0.6C0.2,1.1,0,1.6,0,2.2V11c0,0.6,0.2,1.1,0.6,1.5c0.4,0.4,1,0.6,1.5,0.6
	c0.3,0,0.5,0.1,0.7,0.3c0.2,0.2,0.3,0.4,0.3,0.7v0.5c0,0.4,0.1,0.7,0.4,1c0.3,0.3,0.6,0.4,1,0.4c0.4,0,0.7-0.1,1-0.4l2.1-2.2
	c0.2-0.2,0.4-0.3,0.7-0.3h6.5c0.6,0,1.1-0.2,1.5-0.6c0.4-0.4,0.6-1,0.6-1.5V2.2c0-0.6-0.2-1.1-0.6-1.5C16,0.2,15.4,0,14.8,0z
	 M15.8,11c0,0.3-0.1,0.5-0.3,0.7c-0.2,0.2-0.4,0.3-0.7,0.3H8.4c-0.6,0-1.1,0.2-1.5,0.6l-2.1,2.2c-0.1,0.1-0.1,0.1-0.2,0
	c-0.1,0-0.1-0.1-0.1-0.2v-0.5c0-0.6-0.2-1.1-0.6-1.5c-0.4-0.4-1-0.6-1.5-0.6c-0.3,0-0.5-0.1-0.7-0.3c-0.2-0.2-0.3-0.4-0.3-0.7V2.2
	c0-0.3,0.1-0.5,0.3-0.7c0.2-0.2,0.4-0.3,0.7-0.3h12.7c0.3,0,0.5,0.1,0.7,0.3c0.2,0.2,0.3,0.4,0.3,0.7V11z M5.3,5.2h3.2
	c0.2,0,0.4-0.1,0.5-0.3c0.1-0.2,0.1-0.4,0-0.6C8.9,4.1,8.7,4,8.5,4H5.3C5.1,4,4.9,4.1,4.8,4.3c-0.1,0.2-0.1,0.4,0,0.6
	C4.9,5.1,5.1,5.2,5.3,5.2z M11.7,7.2H5.3c-0.2,0-0.4,0.1-0.5,0.3c-0.1,0.2-0.1,0.4,0,0.6c0.1,0.2,0.3,0.3,0.5,0.3h6.3
	c0.2,0,0.4-0.1,0.5-0.3c0.1-0.2,0.1-0.4,0-0.6C12.1,7.3,11.9,7.2,11.7,7.2z"/>
</svg>
