<?xml version="1.0" encoding="utf-8"?>
<!-- Generator: Adobe Illustrator 25.2.0, SVG Export Plug-In . SVG Version: 6.00 Build 0)  -->
<svg version="1.1" id="Layer_1" xmlns="http://www.w3.org/2000/svg" xmlns:xlink="http://www.w3.org/1999/xlink" x="0px" y="0px"
	 viewBox="0 0 11.5 15" style="enable-background:new 0 0 11.5 15;" xml:space="preserve">
<path d="M5.8,0c-2.2,0-4,1.7-4,3.8c0,2.2,1.8,3.9,4,3.9c2.2,0,4-1.7,4-3.9C9.8,1.7,8,0,5.8,0z M5.8,6.3c-1.4,0-2.5-1.1-2.5-2.5
	c0-1.3,1.2-2.4,2.5-2.4c1.4,0,2.5,1,2.5,2.4C8.3,5.2,7.2,6.3,5.8,6.3z M11.5,14.3c0,0.5-0.5,0.7-0.7,0.7c-0.3,0-0.7-0.1-0.7-0.7
	c0-2.3-1.9-4.2-4.3-4.2c-2.4,0-4.3,1.9-4.3,4.2C1.4,14.9,1,15,0.7,15S0,14.9,0,14.3c0-3.1,2.6-5.7,5.8-5.7
	C8.9,8.7,11.5,11.2,11.5,14.3z"/>
</svg>
