<?xml version="1.0" encoding="utf-8"?>
<!-- Generator: Adobe Illustrator 25.2.0, SVG Export Plug-In . SVG Version: 6.00 Build 0)  -->
<svg version="1.1" id="Layer_1" xmlns="http://www.w3.org/2000/svg" xmlns:xlink="http://www.w3.org/1999/xlink" x="0px" y="0px"
	 viewBox="0 0 14 14" style="enable-background:new 0 0 14 14;" xml:space="preserve">
<path d="M10,14c-0.5,0-1-0.1-1.4-0.3c-3.9-1.4-6.9-4.4-8.3-8.3c-0.4-1.1-0.3-2.2,0.1-3.2c0.5-1,1.3-1.7,2.4-2.1
	c0.7-0.2,1.4,0,1.7,0.6c0.4,0.8,0.9,1.6,1.3,2.3c0.3,0.6,0.3,1.3-0.2,1.9l0,0C5.3,5.3,5.1,5.5,4.8,5.8c0.7,1.4,1.9,2.7,3.4,3.4
	c0.3-0.3,0.6-0.5,0.9-0.8c0.5-0.5,1.3-0.5,1.9-0.2l2.3,1.3c0.6,0.3,0.9,1.1,0.6,1.7c-0.4,1.1-1.1,1.9-2.1,2.4
	C11.2,13.9,10.6,14,10,14z M3.3,1.3C3.2,1.3,3.2,1.3,3.3,1.3C1.7,1.9,0.9,3.5,1.5,5c1.3,3.6,4,6.3,7.6,7.6c1.5,0.5,3.1-0.2,3.6-1.7
	c0-0.1,0-0.1-0.1-0.1l-2.3-1.3c-0.1-0.1-0.2-0.1-0.4,0c-0.4,0.4-0.8,0.7-1.2,1.1l-0.3,0.3L8,10.6C6,9.8,4.2,8,3.4,6L3.3,5.6l0.3-0.3
	c0.4-0.4,0.7-0.8,1.1-1.2l0,0c0.1-0.1,0.1-0.2,0-0.4C4.2,2.9,3.8,2.2,3.3,1.3C3.3,1.3,3.3,1.3,3.3,1.3z"/>
</svg>
