<?xml version="1.0" encoding="utf-8"?>
<!-- Generator: Adobe Illustrator 25.2.0, SVG Export Plug-In . SVG Version: 6.00 Build 0)  -->
<svg version="1.1" id="Layer_1" xmlns="http://www.w3.org/2000/svg" xmlns:xlink="http://www.w3.org/1999/xlink" x="0px" y="0px"
	 viewBox="0 0 23 23" style="enable-background:new 0 0 23 23;" xml:space="preserve">
<path d="M17.5,23c-0.9-0.1-1.7-0.3-2.6-0.6c-2.4-0.9-4.7-2.2-6.6-3.9c-2.8-2.2-5.1-5-6.8-8.1C0.9,9,0.3,7.6,0,6C0,5.8,0,5.6,0,5.3
	c0-0.2,0.1-0.5,0.3-0.7c1-1.5,2.2-2.9,3.6-4.2C4,0.4,4.2,0.2,4.3,0.1C4.4,0,4.6,0,4.7,0C4.9,0,5,0.1,5.1,0.2
	c0.2,0.1,0.3,0.3,0.4,0.4c1.1,1.5,2,3,2.8,4.6c0.4,0.9,0.4,1-0.3,1.7c-0.5,0.4-1,0.8-1.5,1.3c0,0-0.1,0.1-0.1,0.2c0,0.1,0,0.1,0,0.2
	c0.7,2.3,2,4.4,3.9,5.9c1.2,1,2.6,1.7,4.1,2.2c0.1,0,0.1,0,0.2,0c0.1,0,0.1-0.1,0.2-0.1c0.4-0.4,0.8-0.9,1.2-1.4
	c0.7-0.9,0.9-0.9,1.9-0.4c1.6,0.8,3.1,1.7,4.5,2.7c0.2,0.1,0.3,0.3,0.5,0.4c0.1,0.1,0.1,0.1,0.1,0.2c0,0.1,0.1,0.1,0.1,0.2
	c0,0.1,0,0.2,0,0.2c0,0.1-0.1,0.1-0.1,0.2c-0.2,0.3-0.5,0.7-0.8,0.9c-1.2,1.2-2.5,2.3-3.9,3.2C17.9,22.9,17.7,23,17.5,23z M12.3,0.8
	c0-0.2,0-0.4,0-0.6C12.3,0,12.4,0,12.5,0c2.6,0,5.1,1.1,7,2.9c1.8,1.6,3,3.8,3.3,6.2C23,9.6,23,10,23,10.5c0,0.1,0,0.2-0.2,0.2
	c-0.4,0-0.9,0-1.3,0c-0.2,0-0.2-0.1-0.2-0.2c-0.2-3.6-1.9-6.2-5.1-7.9c-1.2-0.6-2.4-0.9-3.7-0.9c-0.2,0-0.2-0.1-0.2-0.2
	S12.3,1,12.3,0.8z M18,10.7c-0.3,0-0.6,0.1-0.7,0c-0.2-0.1-0.1-0.5-0.1-0.7c-0.2-1.1-0.7-2-1.4-2.8C15,6.4,14,5.9,13,5.8l-0.2,0
	c-0.4,0-0.4,0-0.4-0.5c0-0.3,0-0.7,0-1c0-0.2,0-0.2,0.2-0.2c1.1,0,2.1,0.3,3,0.8c0.9,0.5,1.7,1.2,2.3,2.1c0.7,1,1,2.1,1.1,3.3
	c0,0.2,0,0.3-0.3,0.3C18.4,10.7,18.2,10.7,18,10.7L18,10.7z"/>
</svg>
