<?xml version="1.0" encoding="utf-8"?>
<!-- Generator: Adobe Illustrator 25.2.0, SVG Export Plug-In . SVG Version: 6.00 Build 0)  -->
<svg version="1.1" id="Layer_1" xmlns="http://www.w3.org/2000/svg" xmlns:xlink="http://www.w3.org/1999/xlink" x="0px" y="0px"
	 viewBox="0 0 71.6 55" style="enable-background:new 0 0 71.6 55;" xml:space="preserve">
<g>
	<g style="opacity:0.36;">
		<path style="fill:#90393A;" d="M19.2,55c-2,0-4-0.4-5.9-1.2c-1.8-0.8-3.5-2-4.8-3.6c-3-3.6-4.5-8.1-4.3-12.8
			c0-6.8,2.1-13.5,5.9-19.1C13.9,12.8,19,8.2,25,5.2l1.9,3.1c-2.6,2.1-4.8,4.5-6.6,7.2c-2.1,3.2-3.6,6.7-4.6,10.4l3.9,1.1
			c3.6,1,6.8,2.9,9.4,5.6c2.3,2.4,3.5,5.7,3.5,9.1c0.1,1.8-0.2,3.6-0.9,5.2c-0.7,1.6-1.7,3.1-3,4.4C26,53.7,22.7,55,19.2,55z
			 M58.4,55c-2,0.1-4.1-0.3-5.9-1.1c-1.9-0.8-3.5-2-4.9-3.6c-3-3.6-4.5-8.1-4.3-12.8c0-6.8,2.1-13.5,6-19.1
			c3.7-5.6,8.8-10.2,14.9-13.1L66,8.4c-2.6,2.1-4.8,4.5-6.6,7.2c-2.1,3.2-3.6,6.7-4.6,10.4l3.9,1.1c3.6,1,6.8,2.9,9.4,5.6
			c2.3,2.4,3.5,5.7,3.5,9.1c0.1,1.8-0.2,3.6-0.9,5.2c-0.7,1.6-1.7,3.1-3,4.4C65.2,53.7,61.8,55,58.4,55z"/>
	</g>
	<path style="fill:none;stroke:#90393A;" d="M15.6,50.5c-2,0.1-4.1-0.3-6-1.1c-1.9-0.8-3.5-2.1-4.9-3.6c-3-3.6-4.5-8.1-4.3-12.8
		c0-6.8,2.1-13.5,6-19.1c3.7-5.6,8.8-10.1,14.9-13.1l1.8,3.2c-2.6,2.1-4.8,4.5-6.6,7.2c-2.1,3.2-3.6,6.7-4.6,10.4l3.9,1.1
		c3.6,1,6.8,2.9,9.4,5.6c2.3,2.5,3.6,5.7,3.5,9.1c0.1,1.8-0.2,3.6-0.9,5.2c-0.7,1.6-1.7,3.1-3,4.4C22.4,49.2,19.1,50.5,15.6,50.5z
		 M54.8,50.5c-2,0.1-4.1-0.3-6-1.1c-1.9-0.8-3.5-2.1-4.9-3.6c-3-3.6-4.5-8.1-4.3-12.8c0-6.8,2.1-13.5,5.9-19.1
		c3.6-5.6,8.7-10.2,14.7-13.2l1.8,3.2c-2.6,2.1-4.8,4.5-6.6,7.2c-2,3.2-3.5,6.8-4.3,10.5l3.9,1.1c3.5,1,6.8,2.9,9.4,5.6
		c2.3,2.5,3.5,5.7,3.4,9.1c0.1,1.8-0.2,3.5-0.9,5.2c-0.7,1.6-1.7,3.1-3,4.4C61.6,49.2,58.2,50.5,54.8,50.5z"/>
</g>
</svg>
