<?xml version="1.0" encoding="utf-8"?>
<!-- Generator: Adobe Illustrator 25.2.0, SVG Export Plug-In . SVG Version: 6.00 Build 0)  -->
<svg version="1.1" id="Layer_1" xmlns="http://www.w3.org/2000/svg" xmlns:xlink="http://www.w3.org/1999/xlink" x="0px" y="0px"
	 viewBox="0 0 16 16" style="enable-background:new 0 0 16 16;" xml:space="preserve">
<path d="M6.2,0c0.3,0.1,0.6,0.1,0.9,0.2c2.3,0.5,4.1,2.4,4.4,4.7c0.1,0.3,0.1,0.7,0.1,1.1c0,0.9,0,1.7,0,2.6c0,0.3,0,0.6-0.1,0.9
	c0,0.1,0,0.2,0.1,0.2c0.1,0,0.1,0.1,0.1,0.1c0.9,0.9,1.8,1.8,2.8,2.8c0.3,0.3,0.3,0.5,0,0.8c-0.1,0.1-0.2,0.2-0.3,0.3
	c0.1,0.1,0.2,0.2,0.2,0.2c0.1,0.1,0.1,0.2,0.2,0.3c0.2-0.2,0.3-0.4,0.5-0.5c0.3-0.3,0.7-0.1,0.8,0.2c0,0.2,0,0.3-0.1,0.4
	c-0.5,0.5-1.1,1.1-1.6,1.6c-0.2,0.2-0.5,0.2-0.7,0c-0.2-0.2-0.2-0.5,0-0.7c0.2-0.2,0.3-0.3,0.4-0.4c-0.2-0.2-0.3-0.3-0.5-0.5
	c-0.1,0.1-0.2,0.2-0.3,0.4c-0.2,0.2-0.5,0.2-0.8,0c-0.7-0.7-1.4-1.4-2.1-2.1c0,0-0.1-0.1-0.1-0.1c-0.2,0.2-0.4,0.4-0.7,0.6
	c-1.2,1-2.5,1.4-4,1.4c-2.5-0.1-4.9-2-5.4-4.5C0.1,9.6,0.1,9.3,0,9c0-1.2,0-2.3,0-3.5c0,0,0-0.1,0-0.1c0.1-1,0.4-1.9,0.9-2.7
	C1.8,1.4,3,0.5,4.5,0.2C4.8,0.1,5.1,0.1,5.4,0C5.7,0,6,0,6.2,0z M10.7,5.9c-2,0.4-3.6-0.1-4.9-1.6C4.5,5.8,2.9,6.3,0.9,5.9
	c0,0,0,0.1,0,0.1c0,0.8,0,1.7,0,2.5C0.9,8.8,1,9,1,9.3c0.4,2.9,3.2,4.8,6.1,4.1c1-0.2,1.8-0.8,2.4-1.5c0,0,0.1-0.1,0-0.2
	c-0.1-0.2-0.1-0.3,0-0.4c0.1-0.2,0.1-0.4,0.2-0.6c0-0.1,0-0.2-0.1-0.3c-0.3-0.3-0.6-0.6-1-1C8.6,9.2,8.5,9.1,8.6,8.9
	C8.7,8.7,8.8,8.6,9,8.6c0.2,0,0.3,0.1,0.4,0.2c0.3,0.3,0.6,0.6,1,1c0.1,0.1,0.2,0.1,0.2-0.1c0-0.2,0.1-0.4,0.1-0.6
	c0-0.6,0-1.1,0-1.7C10.7,6.9,10.7,6.4,10.7,5.9z M10.6,5c-0.3-2.1-2.3-4.2-5.1-4C2.9,1.1,1.3,3.3,1,5C1.5,5.1,2.3,5.2,2.9,5
	C4,4.8,4.8,4.2,5.4,3.3C5.5,3.2,5.5,3.1,5.6,3c0.2-0.1,0.5,0,0.6,0.2c0.4,0.6,0.9,1.1,1.6,1.5C8.7,5.2,9.7,5.2,10.6,5z M11.7,12.5
	c0.4,0.4,0.8,0.8,1.1,1.1c0.3-0.3,0.5-0.5,0.8-0.8c-0.4-0.4-0.8-0.8-1.1-1.1C12.3,12,12,12.3,11.7,12.5z M11.8,11
	c-0.2-0.2-0.3-0.3-0.5-0.4c0,0-0.1-0.1-0.1,0c-0.5,0.1-0.6,0.2-0.7,0.7c0,0,0,0.1,0,0.1c0.2,0.2,0.3,0.3,0.5,0.5
	C11.3,11.6,11.6,11.3,11.8,11z"/>
</svg>
