<?xml version="1.0" encoding="utf-8"?>
<!-- Generator: Adobe Illustrator 25.2.0, SVG Export Plug-In . SVG Version: 6.00 Build 0)  -->
<svg version="1.1" id="Layer_1" xmlns="http://www.w3.org/2000/svg" xmlns:xlink="http://www.w3.org/1999/xlink" x="0px" y="0px"
	 viewBox="0 0 43.7 52.5" style="enable-background:new 0 0 43.7 52.5;" xml:space="preserve">
<path d="M0,27.7h20.2l-9.4,9.4l2,2l11.9-11.9c0.3-0.3,0.4-0.6,0.4-1c0-0.4-0.2-0.7-0.4-1L12.9,13.4l-2,2l9.4,9.4H0V27.7z M17.5,0
	c-4.2,0-8.2,1-12,2.9l1.6,3.2c3.2-1.6,6.7-2.5,10.3-2.5c12.5,0,22.7,10.2,22.7,22.7c0,12.5-10.2,22.7-22.7,22.7
	c-3.7,0-7.4-0.9-10.6-2.6l-1.7,3.2c3.7,2,8,3,12.3,3c14.5,0,26.2-11.8,26.2-26.2C43.7,11.8,31.9,0,17.5,0L17.5,0z"/>
</svg>
