<?xml version="1.0" encoding="utf-8"?>
<!-- Generator: Adobe Illustrator 25.2.0, SVG Export Plug-In . SVG Version: 6.00 Build 0)  -->
<svg version="1.1" id="Layer_1" xmlns="http://www.w3.org/2000/svg" xmlns:xlink="http://www.w3.org/1999/xlink" x="0px" y="0px"
	 viewBox="0 0 295.5 500.6" style="enable-background:new 0 0 295.5 500.6;" xml:space="preserve">
<g>
	<path style="fill-rule:evenodd;clip-rule:evenodd;fill:#0D0D0D;" d="M40.3,134.6c8.5,25.7,18.8,48.1,35.9,64.8
		c9.1,8.9,19.8,16,31.6,20.7c11.8,4.7,24.4,7.1,37.1,6.9c27.9-0.2,59.8-11.8,79-28.5s25.7-38.7,34-67.5c8.4-28.9,18.6-64.7-4-90.9
		C231.3,13.8,175.8-2.9,131,0.4C86.3,3.8,52.4,27.3,38.8,53.5C25.2,79.8,31.8,108.8,40.3,134.6L40.3,134.6z"/>
	<path style="fill:none;stroke:#FFFFFF;stroke-width:3;stroke-miterlimit:22.93;stroke-opacity:8.000000e-02;" d="M1.3,448.9
		c7.6,14.8,4.5,32.3,2.2,48 M77.6,499.1c4.2-17.7,8.2-36.7,5.2-55.7c-1-14-4-27-7-41c-10-38-46-56-74.5-77.8 M1.6,297.5
		c14,5,28.6,8.3,43.4,9.4c13.5,1,26.8,2.4,40.3,0.7c12.2-1.5,24.2-5.2,34.4-12.3c10.6-7.4,18.2-18.6,24.5-29.8
		c13-22.8,18.8-48.9,18.9-75.1c0.1-26.8-5.3-53.4-13.4-78.9c-8-25.3-18.8-49.7-31.1-73.1c-1.4-2.7-2.9-5.4-4.3-8.1 M1.5,345.1
		c9.7,6.7,19.6,13.1,29.9,19 M202,499.5c4.4-16.2,4.6-28.7,2.3-46.1c-0.9-9.2-1.6-20.5-3.9-29c-2.3-8.6-6.1-14.4-8.3-21
		c-2.2-6.5-2.8-13.8-5.2-26.3c-5.1-21.2-10.3-56-15.9-75.4c-3-7.8-7.9-13.8-11.7-21.8c-3.8-8-6.6-17.9-9.3-27.8 M197.3,173.7
		c-6.7-4-8.2-7.9-15.1-14.9c-4.5-4.5-11.2-10.4-15.1-15.8c-5-6.7-8.1-19.7-1-23c5.6-1.1,19.2,7.6,21.8,12.1c1.3,2.4-0.4,4.2-3.2,4.1
		c-5.8-0.1-15.7-7.6-17.1-13.2c-0.9-8.8,7.4-1.9,12.6,2c10.8,7.6,16.7,12.1,27,23c9.8,10.7,26.3,24.7,36,33.6
		c9.4,12.1,17,34.3,26.2,49.8c5.6,10.1,11,17.7,14.9,24c6.5,9.8,8,15.6,7.8,24.8c4.3,12.2,0.4,20.6-1.1,38.5
		c-1.2,28.3-5,76.1-6,105.9c1.4,30.1,4.2,48-2.2,75.7 M211.5,225.8c-4-9.2-13.1-13.6-23.3-23c-13.4-13.6-36.9-27.6-51.2-38.9
		c-7.5-7.1-13.4-21.9-4.3-25.4c6.4-1.9,20.6,6.1,23.4,11.5c1.4,2.7-0.8,4.4-4.8,4.2c-15.6,0-29.6-23.6-8.1-14.5
		c11.4,6.9,31.9,20.4,44.2,27.7c12.5,9.2,23.5,17,35.7,25.6c13.9,11.8,23,27.5,36.6,44.3c13.2,17.4,24.2,32.6,33.8,48.5
		 M191.8,218.1c6.4,5.5,12,5,21.3,9.8c6,3.1,13.6,8.4,22.3,16.6c8.6,8.3,18.3,19.5,26.4,28.3c12.5,13.7,21.3,20.9,27.6,34.4
		 M223.3,283.6c-2.7-6-8.9-7.8-14.1-13.7c-3.4-3.9-6.2-9.2-8.6-12.7c-5.8-8.1-12.4-7.6-22-12.4c-5.6-2.6-12-6.1-17.3-9.2
		c-5.3-3.1-9.6-5.8-15.2-7.4c-13.3-3.1-34.8-3-35.8-20.5c-0.1-8.9,7.8-8.8,15.5-7.7c6.5,0.5,18.5,3.8,7.5,7.6
		c-5.3,1.4-17.9,0.5-18.7-5.9c1.7-6,14.9,0.3,21.7,1.1c6.3,1.3,12.9,2.2,17.9,3.3c12.6,2.2,19.1,13.6,31.5,14.7c9.5,0.3,4.3-4-1.8-8
		c-3.9-2.7-8.8-6.2-12.2-6.5c-3.4-0.4-5.2,2.3-6.1,5.6c-2.4,9.1,3.9,15.1,11.7,21.1c4.7,3.7,10.4,7.9,14.2,11.5
		c7.5,7.3,15.2,18.4,22.7,25.6c8.3,7,7.6,9.2,10.8,19.6c2.8,9,7.1,14.6,3.9,22.8c-0.7,12.9,1,32.4-2.6,48.4
		c-2.1,10.8-5.9,22-9.7,33.1 M229.3,310.4c-9.6-0.1-10-2.8-16.4-13.2c-7.7-12.3-18.9-32.6-20.4-46.8 M275.8,329.3
		c-0.5-11.3-4.7-16.2-11.8-27.7c-8.5-12.4-16.5-33.7-24-45.6c-12.2-12.1-29.1-21.6-44.6-35.4 M26.3,204.5
		c-13.3,7.4-19.3-4.2-22.4-16.9 M60.8,179.5c5.3-9.3-9.1-2-10.5,2.8c-1.5,2.8-2.1,6.2-3.6,8.9c-4.8,9.6-17.6,1.4-23.4,10
		 M66.3,172.9c7.2-9.7-5.3-17.3-13.6-23.1 M26.3,251.8c22.7,6.5,57.4-5.1,70.6-26.8c5.8-9.3,4.9-23,9.5-28.9c-2,2.1-4.2,3.8-6.7,5.2
		c-4.6,2.7-11.9,5.5-18.3,9.6c-11.9,8.3-21.7,18.5-33.3,26.5c-8.3,7.2-19.1,13.5-28.4,14.1c-1.8,0.5-0.2,1.1,2.4,0.3
		c13.7-4.1,14.8-27.3,28.1-33.6c4.3-2.3,8.7-1.8,10.8-2.7c4.9-4.1,0.7-9.2,13.7-14.6c10.3-4.1,28-6.1,34.8-14.5"/>
</g>
</svg>
