<?xml version="1.0" encoding="utf-8"?>
<!-- Generator: Adobe Illustrator 25.2.0, SVG Export Plug-In . SVG Version: 6.00 Build 0)  -->
<svg version="1.1" id="Layer_1" xmlns="http://www.w3.org/2000/svg" xmlns:xlink="http://www.w3.org/1999/xlink" x="0px" y="0px"
	 viewBox="0 0 30 30" style="enable-background:new 0 0 30 30;" xml:space="preserve">
<path d="M15,0c-0.5,0-1,0.2-1.3,0.5c-0.4,0.4-0.5,0.8-0.5,1.3v11.2H1.9c-0.7,0-1.3,0.4-1.6,0.9c-0.3,0.6-0.3,1.3,0,1.9
	c0.3,0.6,1,0.9,1.6,0.9h11.2v11.2c0,0.7,0.4,1.3,0.9,1.6c0.6,0.3,1.3,0.3,1.9,0c0.6-0.3,0.9-1,0.9-1.6V16.9h11.2
	c0.7,0,1.3-0.4,1.6-0.9c0.3-0.6,0.3-1.3,0-1.9c-0.3-0.6-1-0.9-1.6-0.9H16.9V1.9c0-0.5-0.2-1-0.5-1.3C16,0.2,15.5,0,15,0L15,0z"/>
</svg>
