<?xml version="1.0" encoding="utf-8"?>
<!-- Generator: Adobe Illustrator 25.2.0, SVG Export Plug-In . SVG Version: 6.00 Build 0)  -->
<svg version="1.1" id="Layer_1" xmlns="http://www.w3.org/2000/svg" xmlns:xlink="http://www.w3.org/1999/xlink" x="0px" y="0px"
	 viewBox="0 0 30 30" style="enable-background:new 0 0 30 30;" xml:space="preserve">
<path d="M24.2,14.2h-8.4V5.8C15.8,5.4,15.4,5,15,5c-0.4,0-0.8,0.4-0.8,0.8v8.4H5.8C5.4,14.2,5,14.6,5,15c0,0.4,0.4,0.8,0.8,0.8h8.4
	v8.4c0,0.4,0.4,0.8,0.8,0.8c0.4,0,0.8-0.4,0.8-0.8v-8.4h8.4c0.4,0,0.8-0.4,0.8-0.8C25,14.6,24.6,14.2,24.2,14.2L24.2,14.2z
	 M25.6,4.4C22.8,1.6,19,0,15,0S7.2,1.6,4.4,4.4c-5.8,5.8-5.8,15.4,0,21.2C7.2,28.4,11,30,15,30s7.8-1.6,10.6-4.4
	C31.4,19.8,31.4,10.2,25.6,4.4L25.6,4.4z M24.5,24.5c-2.5,2.5-5.9,3.9-9.5,3.9S8.1,27,5.5,24.5c-5.2-5.2-5.2-13.7,0-18.9
	C8.1,3,11.4,1.6,15,1.6s6.9,1.4,9.5,3.9C29.7,10.8,29.7,19.2,24.5,24.5L24.5,24.5z"/>
</svg>
