<?xml version="1.0" encoding="utf-8"?>
<!-- Generator: Adobe Illustrator 25.2.0, SVG Export Plug-In . SVG Version: 6.00 Build 0)  -->
<svg version="1.1" id="Layer_1" xmlns="http://www.w3.org/2000/svg" xmlns:xlink="http://www.w3.org/1999/xlink" x="0px" y="0px"
	 viewBox="0 0 39.4 30" style="enable-background:new 0 0 39.4 30;" xml:space="preserve">
<path d="M19.7,11.4c-3.5,0-6.3,2.8-6.3,6.3c0,3.5,2.8,6.3,6.3,6.3c3.5,0,6.3-2.8,6.3-6.3C26,14.3,23.2,11.4,19.7,11.4z M19.7,22
	c-2.4,0-4.3-1.9-4.3-4.3c0-2.4,1.9-4.3,4.3-4.3c2.4,0,4.3,1.9,4.3,4.3C24,20.1,22.1,22,19.7,22z M38,4.9H26.5l-1-3.6
	c-0.2-0.7-1-1.3-1.7-1.3h-8.3c-0.7,0-1.5,0.6-1.7,1.3l-1,3.6H9.1V3.4c0-0.5-0.4-0.9-0.9-0.9H4.2c-0.5,0-0.9,0.4-0.9,0.9v1.5h-2
	C0.6,4.9,0,5.5,0,6.2v22.4C0,29.4,0.6,30,1.4,30H38c0.7,0,1.4-0.6,1.4-1.4l0-22.4C39.4,5.5,38.8,4.9,38,4.9L38,4.9z M19.7,26.8
	c-5,0-9-4-9-9c0-5,4-9,9-9c5,0,9,4,9,9C28.7,22.7,24.7,26.8,19.7,26.8z M36.5,10.5c0,0.7-0.6,1.4-1.4,1.4h-3.7
	c-0.8,0-1.4-0.6-1.4-1.4V9c0-0.8,0.6-1.4,1.4-1.4h3.7c0.8,0,1.4,0.6,1.4,1.4V10.5z"/>
</svg>
