<?xml version="1.0" encoding="utf-8"?>
<!-- Generator: Adobe Illustrator 25.2.0, SVG Export Plug-In . SVG Version: 6.00 Build 0)  -->
<svg version="1.1" id="Layer_1" xmlns="http://www.w3.org/2000/svg" xmlns:xlink="http://www.w3.org/1999/xlink" x="0px" y="0px"
	 viewBox="0 0 32.3 30" style="enable-background:new 0 0 32.3 30;" xml:space="preserve">
<path d="M16.1,25.5c-4.5,0-8.2-3.7-8.2-8.2S11.6,9,16.1,9s8.2,3.7,8.2,8.2S20.7,25.5,16.1,25.5z M16.1,10.5c-3.7,0-6.8,3-6.8,6.8
	s3,6.8,6.8,6.8s6.8-3,6.8-6.8S19.8,10.5,16.1,10.5L16.1,10.5z M26.2,12C25,12,24,11,24,9.7s1-2.2,2.2-2.2s2.2,1,2.2,2.2
	S27.5,12,26.2,12z M26.2,9c-0.4,0-0.8,0.3-0.8,0.8c0,0.4,0.3,0.8,0.8,0.8S27,10.2,27,9.7C27,9.3,26.7,9,26.2,9z M28.6,30h-25
	c-2,0-3.6-1.6-3.6-3.6v-19c0-2,1.6-3.6,3.6-3.6H9V2.8C9,1.3,10.3,0,11.8,0h8.6c1.6,0,2.8,1.3,2.8,2.8v0.9h5.4c2,0,3.6,1.6,3.6,3.6
	v19C32.3,28.4,30.6,30,28.6,30L28.6,30z M3.6,5.2c-1.2,0-2.1,0.9-2.1,2.1v19c0,1.2,0.9,2.1,2.1,2.1h25c1.2,0,2.1-0.9,2.1-2.1v-19
	c0-1.2-0.9-2.1-2.1-2.1h-6.2c-0.4,0-0.8-0.3-0.8-0.8V2.8c0-0.7-0.6-1.3-1.3-1.3h-8.6c-0.7,0-1.3,0.6-1.3,1.3v1.7
	c0,0.4-0.3,0.8-0.8,0.8H3.6z"/>
</svg>
