<?xml version="1.0" encoding="utf-8"?>
<!-- Generator: Adobe Illustrator 25.2.0, SVG Export Plug-In . SVG Version: 6.00 Build 0)  -->
<svg version="1.1" id="Layer_1" xmlns="http://www.w3.org/2000/svg" xmlns:xlink="http://www.w3.org/1999/xlink" x="0px" y="0px"
	 viewBox="0 0 29.9 30" style="enable-background:new 0 0 29.9 30;" xml:space="preserve">
<path d="M0.8,29.2C1.3,29.7,2,30,2.6,30c0.6,0,1.3-0.3,1.8-0.8L15,18.6l10.6,10.6c0.5,0.5,1.2,0.8,1.8,0.8c0.6,0,1.3-0.3,1.8-0.8
	c1-1,1-2.6,0-3.6L18.5,15L29.2,4.4c1-1,1-2.6,0-3.6c-1-1-2.6-1-3.6,0L14.9,11.4L4.4,0.9c-1-1-2.6-1-3.6,0c-1,1-1,2.6,0,3.6
	l10.6,10.6L0.8,25.7C-0.2,26.7-0.2,28.3,0.8,29.2L0.8,29.2z"/>
</svg>
