<?xml version="1.0" encoding="utf-8"?>
<!-- Generator: Adobe Illustrator 25.2.0, SVG Export Plug-In . SVG Version: 6.00 Build 0)  -->
<svg version="1.1" id="Layer_1" xmlns="http://www.w3.org/2000/svg" xmlns:xlink="http://www.w3.org/1999/xlink" x="0px" y="0px"
	 viewBox="0 0 30 30" style="enable-background:new 0 0 30 30;" xml:space="preserve">
<path d="M15,30c8.3,0,15-6.7,15-15c0-8.3-6.7-15-15-15S0,6.7,0,15S6.7,30,15,30L15,30z M15,1.9c7.2,0,13.1,5.8,13.1,13.1
	S22.2,28.1,15,28.1S1.9,22.2,1.9,15S7.8,1.9,15,1.9L15,1.9z M9.6,20.4c0.2,0.2,0.4,0.3,0.7,0.3c0.3,0,0.5-0.1,0.7-0.3l4-4l4,4
	c0.2,0.2,0.4,0.3,0.7,0.3c0.3,0,0.5-0.1,0.7-0.3c0.4-0.4,0.4-1,0-1.4l-4.1-4l4-4c0.4-0.4,0.4-1,0-1.4c-0.4-0.4-1-0.4-1.4,0l-4,4
	l-4-4c-0.4-0.4-1-0.4-1.4,0c-0.4,0.4-0.4,1,0,1.4l4,4l-4,4C9.2,19.4,9.2,20,9.6,20.4L9.6,20.4z"/>
</svg>
