<?xml version="1.0" encoding="utf-8"?>
<!-- Generator: Adobe Illustrator 25.2.0, SVG Export Plug-In . SVG Version: 6.00 Build 0)  -->
<svg version="1.1" id="Layer_1" xmlns="http://www.w3.org/2000/svg" xmlns:xlink="http://www.w3.org/1999/xlink" x="0px" y="0px"
	 viewBox="0 0 29.7 30" style="enable-background:new 0 0 29.7 30;" xml:space="preserve">
<path d="M29.5,16.5l-2.3-2.3l0,0c-0.1-0.1-0.3-0.2-0.5-0.2c-0.2,0-0.4,0.1-0.5,0.2L15.4,24.9l-0.9,4.3l4.3-0.9l10.8-10.8l0,0
	c0.1-0.1,0.2-0.3,0.2-0.5C29.7,16.8,29.6,16.6,29.5,16.5L29.5,16.5z M24.7,16.4l0.6,0.6l-8.5,8.5l-0.6-0.6L24.7,16.4z M16.2,28.2
	l-0.8-0.8l0.5-2.2l2.5,2.5L16.2,28.2z M18.8,27.4l-0.6-0.6l8.5-8.5l0.6,0.6L18.8,27.4z M9.3,30H4.9C2.2,30,0,28.2,0,25.9V4.1
	C0,1.8,2.2,0,4.9,0h19.7c2.7,0,4.9,1.8,4.9,4.1l0,5.1c0,0.3-0.2,0.6-0.4,0.7c-0.3,0.1-0.6,0.1-0.8,0c-0.3-0.1-0.4-0.4-0.4-0.7V4.1
	c0-1.3-1.4-2.4-3.2-2.4l-19.7,0c-1.8,0-3.2,1.1-3.2,2.4v21.9c0,1.3,1.4,2.4,3.2,2.4l4.4,0c0.3,0,0.6,0.2,0.7,0.4
	c0.1,0.3,0.1,0.6,0,0.8C9.9,29.8,9.6,30,9.3,30L9.3,30z M6.6,10.8l0-1.7l14.6,0.4l0,1.7L6.6,10.8z M6.7,17.9h10.4v1.7H6.7L6.7,17.9z
	"/>
</svg>
