<?xml version="1.0" encoding="utf-8"?>
<!-- Generator: Adobe Illustrator 25.2.0, SVG Export Plug-In . SVG Version: 6.00 Build 0)  -->
<svg version="1.1" id="Layer_1" xmlns="http://www.w3.org/2000/svg" xmlns:xlink="http://www.w3.org/1999/xlink" x="0px" y="0px"
	 viewBox="0 0 30.3 30" style="enable-background:new 0 0 30.3 30;" xml:space="preserve">
<path d="M29.5,17.3l-11,11L15.2,29l0.7-3.4l11-11L29.5,17.3 M30.3,17.3l-3.4-3.4L15.4,25.3l-0.9,4.3l4.3-0.9L30.3,17.3L30.3,17.3z
	 M9.1,30H4.5C2,30,0,28.4,0,26.3V3.7C0,1.6,2,0,4.5,0h20.4c2.5,0,4.5,1.6,4.5,3.7V9c0,0.1,0,0.2-0.1,0.2c-0.1,0.1-0.1,0.1-0.2,0.1
	c-0.1,0-0.2,0-0.2-0.1c-0.1-0.1-0.1-0.1-0.1-0.2V3.7c0-1.7-1.7-3-3.9-3H4.5c-2.1,0-3.9,1.4-3.9,3v22.7c0,1.7,1.7,3,3.9,3l4.6,0
	c0.1,0,0.2,0,0.2,0.1c0.1,0.1,0.1,0.1,0.1,0.2c0,0.1,0,0.2-0.1,0.2C9.3,30,9.2,30,9.1,30L9.1,30z M6.4,10.1l0-0.6l15.1,0.4l0,0.6
	L6.4,10.1z M6.4,18.6h10.8v0.6H6.4V18.6z"/>
</svg>
