<?xml version="1.0" encoding="utf-8"?>
<!-- Generator: Adobe Illustrator 25.2.0, SVG Export Plug-In . SVG Version: 6.00 Build 0)  -->
<svg version="1.1" id="Layer_1" xmlns="http://www.w3.org/2000/svg" xmlns:xlink="http://www.w3.org/1999/xlink" x="0px" y="0px"
	 viewBox="0 0 30 30" style="enable-background:new 0 0 30 30;" xml:space="preserve">
<path d="M29.5,13.4l-2.4-0.5c-0.3-1.8-1-3.5-2.1-4.9l1.4-2.1c0.2-0.3,0.1-0.6-0.1-0.8l-1.4-1.4c-0.2-0.2-0.6-0.3-0.8-0.1L22.1,5
	c-1.4-1.1-3.1-1.7-4.9-2.1l-0.5-2.4C16.6,0.2,16.3,0,16,0h-2c-0.3,0-0.6,0.2-0.6,0.5l-0.5,2.4c-1.8,0.3-3.5,1-4.9,2.1L5.9,3.6
	C5.6,3.4,5.3,3.5,5.1,3.7L3.7,5.1C3.5,5.3,3.4,5.6,3.6,5.9L5,7.9c-1,1.4-1.7,3.1-2.1,4.9l-2.4,0.5C0.2,13.4,0,13.7,0,14v2
	c0,0.3,0.2,0.6,0.5,0.6l2.4,0.5c0.3,1.8,1,3.5,2.1,4.9l-1.4,2.1c-0.2,0.3-0.1,0.6,0.1,0.8l1.4,1.4c0.2,0.2,0.6,0.3,0.8,0.1L7.9,25
	c1.4,1.1,3.1,1.7,4.9,2.1l0.5,2.4c0.1,0.3,0.3,0.5,0.6,0.5h2c0.3,0,0.6-0.2,0.6-0.5l0.5-2.4c1.8-0.3,3.5-1,4.9-2.1l2.1,1.4
	c0.3,0.2,0.6,0.1,0.8-0.1l1.4-1.4c0.2-0.2,0.3-0.6,0.1-0.8L25,22.1c1-1.4,1.7-3.1,2.1-4.9l2.4-0.5c0.3-0.1,0.5-0.3,0.5-0.6v-2
	C30,13.7,29.7,13.4,29.5,13.4L29.5,13.4z M15,23.2c-4.6,0-8.2-3.7-8.2-8.2s3.7-8.2,8.2-8.2s8.2,3.7,8.2,8.2S19.6,23.2,15,23.2z
	 M20,18.6c-0.1,0-2.8-1-2.8-1l-0.5-0.9l0-0.4c0.5-0.7,1.1-0.9,1.1-1.6v-0.4c0.6,0.3,1.2-2.4,0.4-2.4c0.1-0.5,0.1-1.2,0.1-1.6
	c-0.1-0.6-0.8-0.8-0.8-0.8c-0.2-1.1-1.4-1.4-2.4-1.2c-2.4,0.1-3.4,1.4-3.3,3.6c-0.7,0.2-0.3,2.5,0.4,2.4h0.1c0,0.3-0.1,0.8,0.3,1.1
	l0.9,0.9v0.5l-0.6,0.9c-2.4,0.9-3.4,1-3.9,1.8c1.4,1.9,3.6,3.2,6.2,3.2c2.6,0,4.8-1.2,6.2-3.2C20.9,19.1,20.6,18.8,20,18.6
	C20.1,18.6,20.1,18.6,20,18.6L20,18.6z"/>
</svg>
