<?xml version="1.0" encoding="utf-8"?>
<!-- Generator: Adobe Illustrator 25.2.0, SVG Export Plug-In . SVG Version: 6.00 Build 0)  -->
<svg version="1.1" id="Layer_1" xmlns="http://www.w3.org/2000/svg" xmlns:xlink="http://www.w3.org/1999/xlink" x="0px" y="0px"
	 viewBox="0 0 33.2 30" style="enable-background:new 0 0 33.2 30;" xml:space="preserve">
<path style="fill-rule:evenodd;clip-rule:evenodd;" d="M1,12.8c0-0.3,0.2-0.5,0.4-0.7L16.6,1.2l15.1,10.9c0.2,0.2,0.4,0.4,0.4,0.7
	c0,0.3,0,0.6-0.2,0.8l0,0c-0.2,0.2-0.4,0.3-0.7,0.4c-0.3,0-0.5,0-0.7-0.2L16.9,3.9c-0.2-0.1-0.4-0.1-0.6,0L2.7,13.8
	C2.5,13.9,2.2,14,1.9,14c-0.3,0-0.5-0.2-0.7-0.4l0,0C1.1,13.3,1,13.1,1,12.8L1,12.8z M28.8,27.9V13.8L16.6,4.9L4.4,13.8v14.2
	c0,0.3,0.1,0.5,0.3,0.7C4.9,28.9,5.2,29,5.5,29h5V20c0-0.5,0.2-1,0.6-1.4c0.4-0.4,0.9-0.6,1.4-0.6h8.4c0.5,0,1,0.2,1.4,0.6
	c0.4,0.4,0.6,0.9,0.6,1.4V29h5c0.3,0,0.5-0.1,0.7-0.3C28.6,28.5,28.8,28.2,28.8,27.9L28.8,27.9z M21.7,29H11.5V20
	c0-0.2,0.1-0.5,0.3-0.6c0.2-0.2,0.4-0.3,0.6-0.3h8.4c0.2,0,0.5,0.1,0.6,0.3c0.2,0.2,0.3,0.4,0.3,0.6L21.7,29z M0.5,14.3
	c0.3,0.4,0.8,0.7,1.3,0.7c0.5,0.1,1-0.1,1.5-0.4l0.1-0.1l0,13.4c0,0.6,0.2,1.1,0.6,1.5C4.4,29.8,4.9,30,5.5,30h22.2
	c0.6,0,1.1-0.2,1.5-0.6c0.4-0.4,0.6-0.9,0.6-1.5V14.5l0.1,0.1c0.4,0.3,0.9,0.4,1.5,0.4c0.5-0.1,1-0.3,1.3-0.7l0,0
	c0.4-0.4,0.5-1,0.4-1.6c-0.1-0.6-0.4-1.1-0.8-1.4L16.9,0.1c-0.2-0.1-0.4-0.1-0.6,0L0.8,11.3c-0.5,0.3-0.8,0.8-0.8,1.4
	C-0.1,13.2,0.1,13.8,0.5,14.3L0.5,14.3z"/>
</svg>
