<?xml version="1.0" encoding="utf-8"?>
<!-- Generator: Adobe Illustrator 25.2.0, SVG Export Plug-In . SVG Version: 6.00 Build 0)  -->
<svg version="1.1" id="Layer_1" xmlns="http://www.w3.org/2000/svg" xmlns:xlink="http://www.w3.org/1999/xlink" x="0px" y="0px"
	 viewBox="0 0 33.6 30" style="enable-background:new 0 0 33.6 30;" xml:space="preserve">
<path style="fill-rule:evenodd;clip-rule:evenodd;" d="M21.7,30h-9.8v-9c0-0.3,0.1-0.5,0.3-0.7c0.2-0.2,0.4-0.3,0.7-0.3h7.8
	c0.3,0,0.5,0.1,0.7,0.3c0.2,0.2,0.3,0.4,0.3,0.7L21.7,30z M29.9,28.9V14.2L16.8,4.7L3.7,14.2v14.6c0,0.3,0.1,0.6,0.3,0.8
	C4.2,29.9,4.5,30,4.8,30h5.4v-9.6c0-0.6,0.2-1.1,0.6-1.5c0.4-0.4,0.9-0.6,1.5-0.6h9.1c0.6,0,1.1,0.2,1.5,0.6
	c0.4,0.4,0.6,0.9,0.6,1.5V30h5.4c0.3,0,0.6-0.1,0.8-0.3C29.8,29.5,29.9,29.2,29.9,28.9L29.9,28.9z M0,12.6c0-0.3,0.2-0.6,0.4-0.7
	L16.8,0l16.3,11.8c0.2,0.2,0.4,0.4,0.4,0.7c0,0.3,0,0.6-0.2,0.8l0,0c-0.2,0.2-0.4,0.4-0.7,0.4c-0.3,0-0.6,0-0.8-0.2L17.1,2.9
	c-0.2-0.1-0.5-0.1-0.7,0L1.8,13.6c-0.2,0.2-0.5,0.2-0.8,0.2c-0.3,0-0.5-0.2-0.7-0.4l0,0h0C0.1,13.2,0,12.9,0,12.6L0,12.6z"/>
</svg>
