<?xml version="1.0" encoding="utf-8"?>
<!-- Generator: Adobe Illustrator 25.2.0, SVG Export Plug-In . SVG Version: 6.00 Build 0)  -->
<svg version="1.1" id="Layer_1" xmlns="http://www.w3.org/2000/svg" xmlns:xlink="http://www.w3.org/1999/xlink" x="0px" y="0px"
	 viewBox="0 0 402.5 516.2" style="enable-background:new 0 0 402.5 516.2;" xml:space="preserve">
<path d="M201.2,72.1H73.7v50.6h127.6V72.1z M103.9,89.1H83.3v-8.9h20.6V89.1z M201.2,144.6H73.7v50.6h127.6V144.6z M103.9,161.5
	H83.3v-8.9h20.6V161.5z M201.2,217H73.7v50.6h127.6V217z M103.9,233.9H83.3V225h20.6V233.9z M241.8,430.9c1.1-0.3,2.1-0.7,2.9-1.4
	c0.8-0.6,1.5-1.4,2-2.3c0.6-1,0.8-2.2,0.8-3.3c0.2-2.3-0.7-4.6-2.4-6.1c-2.1-1.6-4.7-2.3-7.2-2.1H225v15.8h13.3
	C239.5,431.4,240.7,431.2,241.8,430.9L241.8,430.9z M238.3,445.6H225v19.5h13.5c2.9,0.2,5.8-0.6,8.1-2.2c2-2,3-4.9,2.7-7.7
	c0.2-2.7-0.7-5.4-2.6-7.3C244.2,446.2,241.3,445.4,238.3,445.6L238.3,445.6z M178.1,421.7c-3.5-4.3-8.8-6.6-14.3-6.1h-8.9v49.6h8.7
	c3.3,0.1,6.6-0.6,9.5-2c2.4-1.2,4.5-3.1,5.9-5.4c1.5-2.4,2.5-5.1,3-7.9c0.6-3.2,0.9-6.4,0.9-9.6c0.1-3.7-0.3-7.3-1.2-10.9
	C181,426.6,179.8,424,178.1,421.7L178.1,421.7z M393.8,360.2V130.2L263.6,0H43.8C34.5,0,25.6,3.7,19,10.2C12.4,16.8,8.8,25.7,8.8,35
	v295.2c-2.7,1.5-4.9,3.7-6.4,6.4c-1.5,2.6-2.3,5.6-2.4,8.7v127.2c0,11.6,4.6,22.7,12.8,30.9c8.2,8.2,19.3,12.8,30.9,12.8h315
	c11.6,0,22.7-4.6,30.9-12.8c8.2-8.2,12.8-19.3,12.8-30.9v-97.2c0-3.1-0.8-6.1-2.4-8.7C398.6,364,396.4,361.8,393.8,360.2
	L393.8,360.2z M197.4,457c-1.3,4.6-3.7,8.8-6.9,12.2c-6.9,7.1-16.6,10.9-26.5,10.2h-25.7v-78.1h25.5c5.5-0.1,10.9,0.8,16.1,2.8
	c4.3,1.7,8.1,4.4,11.1,7.9c3,3.6,5.2,7.8,6.5,12.3c1.5,5.2,2.2,10.7,2.1,16.1C199.6,446.1,198.9,451.6,197.4,457L197.4,457z
	 M258.4,474.1c-6.5,4-14.1,5.9-21.7,5.4h-28.4v-78.1h29.1c3.4,0,6.7,0.3,10,0.9c3.1,0.5,6,1.7,8.6,3.3c2.5,1.6,4.6,3.8,6,6.4
	c1.6,3.1,2.4,6.5,2.2,10c0,3.4-0.8,6.7-2.5,9.6c-1.7,2.9-4.3,5.3-7.3,6.7c3.7,1.4,6.9,4,9,7.4c1.8,3.6,2.6,7.6,2.5,11.6
	C266.5,463.7,263.7,470.1,258.4,474.1L258.4,474.1z M376.2,357.8H184.5l-21-24c-3.3-3.8-8.1-6-13.2-6H26.2V35
	c0-4.6,1.8-9.1,5.1-12.4s7.7-5.1,12.4-5.1h207.5v90c0,9.3,3.7,18.2,10.3,24.7c6.6,6.6,15.5,10.3,24.7,10.3h90L376.2,357.8z"/>
</svg>
