<?xml version="1.0" encoding="utf-8"?>
<!-- Generator: Adobe Illustrator 25.2.0, SVG Export Plug-In . SVG Version: 6.00 Build 0)  -->
<svg version="1.1" id="Layer_1" xmlns="http://www.w3.org/2000/svg" xmlns:xlink="http://www.w3.org/1999/xlink" x="0px" y="0px"
	 viewBox="0 0 30 30" style="enable-background:new 0 0 30 30;" xml:space="preserve">
<path d="M23.1,0l-4.6,4.6l6.9,6.9L30,6.9L23.1,0z M25.4,10.7l-6.2-6.2l3.8-3.8l6.2,6.2L25.4,10.7z M1.9,21.2L0,30l8.8-1.9l1-1
	l-6.9-6.9L1.9,21.2z M8.5,27.6l-7.8,1.7l1.7-7.8L2.9,21L9,27.1L8.5,27.6z M3.3,19.8l6.9,6.9L25,11.9L18.1,5L3.3,19.8z M24.3,11.9
	L10.2,26L4,19.8L18.1,5.7L24.3,11.9z"/>
</svg>
