<?xml version="1.0" encoding="utf-8"?>
<!-- Generator: Adobe Illustrator 25.2.0, SVG Export Plug-In . SVG Version: 6.00 Build 0)  -->
<svg version="1.1" id="Layer_1" xmlns="http://www.w3.org/2000/svg" xmlns:xlink="http://www.w3.org/1999/xlink" x="0px" y="0px"
	 viewBox="0 0 28.1 30" style="enable-background:new 0 0 28.1 30;" xml:space="preserve">
<path d="M4.9,23.2H3.4v-2.5c0-0.4,0.3-0.7,0.7-0.7h19.8c0.4,0,0.7,0.3,0.7,0.7v2.5h-1.5v-1.7l-8.4,0v1.7h-1.5v-1.7H4.9L4.9,23.2z
	 M14.1,18.3h7.8c0-3.3,0.1-5-2-5.7c-1.9-0.7-3.1-1.5-3.1-1.5l-1.5,4.7l-0.2,0.6l-0.7-1.9c1.5-2.1-0.1-2.2-0.4-2.2
	c-0.3,0-1.9,0.1-0.4,2.2L13,16.3l-0.2-0.6l-1.5-4.7c0,0-1.1,0.7-3.1,1.5c-2.1,0.7-2,2.5-2,5.7H14.1z M15.3,6.8
	c0.7-0.7,0.7-1.7,0-2.3c-0.7-0.7-1.7-0.7-2.3,0c-0.7,0.7-0.7,1.7,0,2.3C13.5,7.4,14.6,7.4,15.3,6.8z M8.4,6.1v-1
	c0-0.2,0.2-0.4,0.4-0.4h0.8c0.1-0.6,0.3-1.1,0.7-1.6L9.7,2.5C9.6,2.4,9.6,2.2,9.7,2l0.7-0.7c0.1-0.1,0.4-0.1,0.5,0l0.6,0.6
	c0.5-0.3,1.1-0.6,1.6-0.7V0.4c0-0.2,0.2-0.4,0.4-0.4h1c0.2,0,0.4,0.2,0.4,0.4v0.8c0.6,0.1,1.1,0.3,1.6,0.7l0.6-0.6
	c0.1-0.1,0.4-0.1,0.5,0L18.4,2c0.1,0.1,0.1,0.4,0,0.5l-0.6,0.6c0.3,0.5,0.6,1.1,0.7,1.6h0.8c0.2,0,0.4,0.2,0.4,0.4v1
	c0,0.2-0.2,0.4-0.4,0.4h-0.8c-0.1,0.6-0.3,1.1-0.7,1.6l0.6,0.6c0.1,0.1,0.1,0.4,0,0.5l-0.7,0.7c-0.1,0.1-0.4,0.1-0.5,0l-0.6-0.6
	C16,9.7,15.5,9.9,14.9,10v0.8c0,0.2-0.2,0.4-0.4,0.4h-1c-0.2,0-0.4-0.2-0.4-0.4V10c-0.6-0.1-1.1-0.3-1.6-0.7L11,9.9
	c-0.1,0.1-0.4,0.1-0.5,0L9.7,9.2c-0.1-0.1-0.1-0.4,0-0.5l0.6-0.6C10,7.6,9.8,7,9.6,6.5H8.8C8.6,6.5,8.4,6.3,8.4,6.1L8.4,6.1z
	 M12.2,7.5c1,1,2.7,1,3.7,0c1-1,1-2.7,0-3.7c-1-1-2.7-1-3.7,0C11.2,4.8,11.2,6.5,12.2,7.5z M17.2,24.5h-6.4c-0.5,0-1,0.4-1,1V29
	c0,0.5,0.4,1,1,1h6.4c0.5,0,1-0.4,1-1l0-3.6C18.2,24.9,17.8,24.5,17.2,24.5L17.2,24.5z M27.1,24.5h-6.4c-0.5,0-1,0.4-1,1V29
	c0,0.5,0.4,1,1,1h6.4c0.5,0,1-0.4,1-1v-3.6C28.1,24.9,27.7,24.5,27.1,24.5L27.1,24.5z M7.4,24.5H1c-0.5,0-1,0.4-1,1V29
	c0,0.5,0.4,1,1,1h6.4c0.5,0,1-0.4,1-1v-3.6C8.3,24.9,7.9,24.5,7.4,24.5L7.4,24.5z"/>
</svg>
