<?xml version="1.0" encoding="utf-8"?>
<!-- Generator: Adobe Illustrator 25.2.0, SVG Export Plug-In . SVG Version: 6.00 Build 0)  -->
<svg version="1.1" id="Layer_1" xmlns="http://www.w3.org/2000/svg" xmlns:xlink="http://www.w3.org/1999/xlink" x="0px" y="0px"
	 viewBox="0 0 42.5 30" style="enable-background:new 0 0 42.5 30;" xml:space="preserve">
<path d="M37.7,21.3H4.6c-1.7,0-3.3-0.6-4.6-1.8v9.1C0,29.4,0.6,30,1.3,30h39.9c0.7,0,1.3-0.6,1.3-1.3v-9.4
	C41.2,20.6,39.5,21.3,37.7,21.3L37.7,21.3z M41.7,2.7H0.8C0.4,2.7,0,3.1,0,3.5V18c1.2,1.4,2.8,2.2,4.6,2.2h33.2
	c1.9,0,3.7-0.9,4.8-2.6V3.5C42.5,3.1,42.2,2.7,41.7,2.7L41.7,2.7z M24.5,17.4h-6.8c-0.3,0-0.5-0.2-0.5-0.5c0-0.3,0.2-0.5,0.5-0.5
	h6.8c0.3,0,0.5,0.2,0.5,0.5C25.1,17.1,24.8,17.4,24.5,17.4z M25.3,0H17C16.4,0,16,0.5,16,1.1v0.6h10.4V1.1C26.3,0.5,25.8,0,25.3,0
	L25.3,0z"/>
</svg>
