<?xml version="1.0" encoding="utf-8"?>
<!-- Generator: Adobe Illustrator 25.2.0, SVG Export Plug-In . SVG Version: 6.00 Build 0)  -->
<svg version="1.1" id="Layer_1" xmlns="http://www.w3.org/2000/svg" xmlns:xlink="http://www.w3.org/1999/xlink" x="0px" y="0px"
	 viewBox="0 0 30 30" style="enable-background:new 0 0 30 30;" xml:space="preserve">
<path d="M19.8,15.5l-5.4-5.4l-8.2,8.2l5.4,5.4L19.8,15.5z M9,19.6c-0.1,0-0.3-0.1-0.4-0.2c-0.2-0.2-0.2-0.5,0-0.7l5.4-5.4
	c0.2-0.2,0.5-0.2,0.7,0c0.2,0.2,0.2,0.5,0,0.7l-5.4,5.4C9.2,19.5,9.1,19.6,9,19.6L9,19.6z M11,21.6c-0.1,0-0.3-0.1-0.4-0.2
	c-0.2-0.2-0.2-0.5,0-0.7l3.5-3.5c0.2-0.2,0.5-0.2,0.7,0c0.2,0.2,0.2,0.5,0,0.7l-3.5,3.5C11.2,21.5,11.1,21.6,11,21.6L11,21.6z
	 M28.7,9c-0.6,0.6-1.5,0.6-2,0c-0.6-0.6-0.6-1.5,0-2l-0.8-0.8c-0.6,0.6-1.5,0.6-2,0c-0.6-0.6-0.6-1.5,0-2L23,3.3
	c-0.6,0.6-1.5,0.6-2,0c-0.6-0.6-0.6-1.5,0-2L19.7,0l-4.9,4.9l10.3,10.3l4.9-4.9L28.7,9z M0,19.7L1.3,21c0.6-0.6,1.5-0.6,2,0
	c0.6,0.6,0.6,1.5,0,2l0.8,0.8c0.6-0.6,1.5-0.6,2,0c0.6,0.6,0.6,1.5,0,2L7,26.7c0.6-0.6,1.5-0.6,2,0c0.6,0.6,0.6,1.5,0,2l1.3,1.3
	l14.1-14.1L14.1,5.7L0,19.7z M14.8,9l6.1,6.1c0.1,0.1,0.2,0.2,0.2,0.4c0,0.1-0.1,0.3-0.2,0.4L12,24.8c-0.1,0.1-0.2,0.2-0.4,0.2
	s-0.3-0.1-0.4-0.2l-6.1-6.1C5,18.5,5,18.2,5.2,18L14.1,9C14.3,8.8,14.6,8.8,14.8,9L14.8,9z"/>
</svg>
