<?xml version="1.0" encoding="utf-8"?>
<!-- Generator: Adobe Illustrator 25.2.0, SVG Export Plug-In . SVG Version: 6.00 Build 0)  -->
<svg version="1.1" id="Layer_1" xmlns="http://www.w3.org/2000/svg" xmlns:xlink="http://www.w3.org/1999/xlink" x="0px" y="0px"
	 viewBox="0 0 30 30" style="enable-background:new 0 0 30 30;" xml:space="preserve">
<path d="M29.9,10.1l-1.2-1.2c-0.2-0.2-0.5-0.2-0.7,0c-0.3,0.3-0.9,0.3-1.2,0c-0.2-0.2-0.3-0.4-0.3-0.6c0-0.2,0.1-0.4,0.3-0.6
	c0.1-0.1,0.1-0.2,0.1-0.4S26.8,7,26.7,6.9l-0.8-0.8c-0.2-0.2-0.5-0.2-0.7,0c-0.3,0.3-0.9,0.3-1.2,0c-0.2-0.2-0.3-0.4-0.3-0.6
	c0-0.2,0.1-0.4,0.3-0.6c0.1-0.1,0.1-0.2,0.1-0.4c0-0.1-0.1-0.3-0.1-0.4l-0.8-0.8c-0.2-0.2-0.5-0.2-0.7,0c-0.3,0.3-0.9,0.3-1.2,0
	c-0.3-0.3-0.3-0.9,0-1.2c0.2-0.2,0.2-0.5,0-0.7l-1.2-1.2c-0.2-0.2-0.5-0.2-0.7,0l-5.1,5.1c0,0,0,0,0,0c0,0,0,0,0,0l-14,14
	C0.1,19.3,0,19.4,0,19.6s0.1,0.3,0.1,0.4l1.2,1.2c0.2,0.2,0.5,0.2,0.7,0c0.3-0.3,0.9-0.3,1.2,0c0.3,0.3,0.3,0.9,0,1.2
	c-0.2,0.2-0.2,0.5,0,0.7l0.8,0.8c0.2,0.2,0.5,0.2,0.7,0c0.3-0.3,0.9-0.3,1.2,0c0.2,0.2,0.3,0.4,0.3,0.6c0,0.2-0.1,0.4-0.3,0.6
	c-0.1,0.1-0.1,0.2-0.1,0.4c0,0.1,0.1,0.3,0.1,0.4l0.8,0.8c0.2,0.2,0.5,0.2,0.7,0c0.3-0.3,0.9-0.3,1.2,0c0.3,0.3,0.3,0.9,0,1.2
	c-0.2,0.2-0.2,0.5,0,0.7l1.2,1.2c0.1,0.1,0.2,0.1,0.4,0.1c0.1,0,0.3-0.1,0.4-0.1l14-14c0,0,0,0,0,0l0,0l5.1-5.1
	C30,10.6,30,10.3,29.9,10.1L29.9,10.1z M10.4,28.8l-0.6-0.6c0.4-0.7,0.3-1.6-0.3-2.2c-0.4-0.4-0.8-0.6-1.3-0.6
	c-0.3,0-0.6,0.1-0.9,0.2l-0.2-0.2c0.2-0.3,0.2-0.6,0.2-0.9c0-0.5-0.2-1-0.6-1.3c-0.4-0.4-0.8-0.6-1.3-0.6c-0.3,0-0.6,0.1-0.9,0.2
	l-0.2-0.2C4.7,22,4.6,21.1,4,20.4c-0.4-0.4-0.8-0.6-1.3-0.6c-0.3,0-0.6,0.1-0.9,0.2l-0.6-0.6L14.5,6.3l9.2,9.2L10.4,28.8z
	 M24.4,14.8l-9.2-9.2l4.4-4.4l0.6,0.6c-0.4,0.7-0.3,1.6,0.3,2.2c0.4,0.4,0.8,0.6,1.3,0.6c0.3,0,0.6-0.1,0.9-0.2l0.2,0.2
	c-0.2,0.3-0.2,0.6-0.2,0.9c0,0.5,0.2,1,0.6,1.3c0.4,0.4,0.8,0.6,1.3,0.6c0.3,0,0.6-0.1,0.9-0.2l0.2,0.2c-0.2,0.3-0.2,0.6-0.2,0.9
	c0,0.5,0.2,1,0.6,1.3c0.4,0.4,0.8,0.6,1.3,0.6c0.3,0,0.6-0.1,0.9-0.2l0.6,0.6L24.4,14.8z M5.5,17.9c-0.2,0.2-0.2,0.5,0,0.7l5.9,5.9
	c0.1,0.1,0.2,0.1,0.4,0.1s0.3-0.1,0.4-0.1l8.6-8.6c0.1-0.1,0.1-0.2,0.1-0.4s-0.1-0.3-0.1-0.4l-5.9-5.9c-0.2-0.2-0.5-0.2-0.7,0
	L5.5,17.9z M19.7,15.5l-7.9,7.9l-5.2-5.2l7.9-7.9L19.7,15.5z M8.8,19.3c0.1,0.1,0.2,0.1,0.4,0.1c0.1,0,0.3,0,0.4-0.1l5.2-5.2
	c0.2-0.2,0.2-0.5,0-0.7c-0.2-0.2-0.5-0.2-0.7,0l-5.2,5.2C8.6,18.7,8.6,19.1,8.8,19.3L8.8,19.3z M14.1,17.1l-3.4,3.4
	c-0.2,0.2-0.2,0.5,0,0.7c0.1,0.1,0.2,0.1,0.4,0.1c0.1,0,0.3,0,0.4-0.1l3.4-3.4c0.2-0.2,0.2-0.5,0-0.7C14.6,16.9,14.3,16.9,14.1,17.1
	L14.1,17.1z"/>
</svg>
