<?xml version="1.0" encoding="utf-8"?>
<!-- Generator: Adobe Illustrator 25.2.0, SVG Export Plug-In . SVG Version: 6.00 Build 0)  -->
<svg version="1.1" id="Layer_1" xmlns="http://www.w3.org/2000/svg" xmlns:xlink="http://www.w3.org/1999/xlink" x="0px" y="0px"
	 viewBox="0 0 21.6 30" style="enable-background:new 0 0 21.6 30;" xml:space="preserve">
<g>
	<path style="fill-rule:evenodd;clip-rule:evenodd;" d="M20.3,6.5h-19C0.6,6.5,0,5.9,0,5.2V4.3C0,3.6,0.6,3,1.3,3h19
		c0.7,0,1.3,0.6,1.3,1.3v0.9C21.6,5.9,21,6.5,20.3,6.5L20.3,6.5z M1.3,3.7C1,3.7,0.7,4,0.7,4.3v0.9c0,0.3,0.3,0.6,0.6,0.6h19
		c0.3,0,0.6-0.3,0.6-0.6V4.3c0-0.3-0.3-0.6-0.6-0.6H1.3z"/>
	<path style="fill-rule:evenodd;clip-rule:evenodd;" d="M16.7,30H4.9c-1.7,0-3-1.4-3-3V6.1C1.9,6,2,5.8,2.2,5.8h17.1
		c0.2,0,0.4,0.2,0.4,0.4V27C19.7,28.6,18.4,30,16.7,30L16.7,30z M2.6,6.5V27c0,1.3,1,2.3,2.3,2.3h11.8c1.3,0,2.3-1,2.3-2.3V6.5H2.6z
		 M14.7,3.7H6.8c-0.2,0-0.4-0.2-0.4-0.4V1.9c0-1,0.8-1.9,1.9-1.9h4.9c1,0,1.9,0.8,1.9,1.9v1.5C15.1,3.6,14.9,3.7,14.7,3.7L14.7,3.7z
		 M7.2,3h7.2V1.9c0-0.6-0.5-1.2-1.2-1.2H8.4c-0.6,0-1.2,0.5-1.2,1.2L7.2,3L7.2,3z M16,25h-0.9c-0.7,0-1.3-0.6-1.3-1.3V12
		c0-0.7,0.6-1.3,1.3-1.3H16c0.7,0,1.3,0.6,1.3,1.3v11.8C17.3,24.5,16.7,25,16,25z M15.1,11.5c-0.3,0-0.6,0.2-0.6,0.6v11.8
		c0,0.3,0.2,0.6,0.6,0.6H16c0.3,0,0.6-0.2,0.6-0.6V12c0-0.3-0.2-0.6-0.6-0.6L15.1,11.5z M11.3,25h-0.9c-0.7,0-1.3-0.6-1.3-1.3V12
		c0-0.7,0.6-1.3,1.3-1.3h0.9c0.7,0,1.3,0.6,1.3,1.3v11.8C12.5,24.5,11.9,25,11.3,25L11.3,25z M10.3,11.5c-0.3,0-0.6,0.2-0.6,0.6
		v11.8c0,0.3,0.2,0.6,0.6,0.6h0.9c0.3,0,0.6-0.2,0.6-0.6V12c0-0.3-0.2-0.6-0.6-0.6L10.3,11.5z M6.5,25H5.6c-0.7,0-1.3-0.6-1.3-1.3
		V12c0-0.7,0.6-1.3,1.3-1.3h0.9c0.7,0,1.3,0.6,1.3,1.3v11.8C7.8,24.5,7.2,25,6.5,25z M5.6,11.5C5.3,11.5,5,11.7,5,12v11.8
		c0,0.3,0.2,0.6,0.6,0.6h0.9c0.3,0,0.6-0.2,0.6-0.6l0-11.8c0-0.3-0.2-0.6-0.6-0.6L5.6,11.5z"/>
</g>
</svg>
