<?xml version="1.0" encoding="utf-8"?>
<!-- Generator: Adobe Illustrator 25.2.0, SVG Export Plug-In . SVG Version: 6.00 Build 0)  -->
<svg version="1.1" id="Layer_1" xmlns="http://www.w3.org/2000/svg" xmlns:xlink="http://www.w3.org/1999/xlink" x="0px" y="0px"
	 viewBox="0 0 21.6 30" style="enable-background:new 0 0 21.6 30;" xml:space="preserve">
<path style="fill-rule:evenodd;clip-rule:evenodd;" d="M20,7.7v18.2c0,2.2-1.8,4.1-4.1,4.1L5.7,30c-2.2,0-4.1-1.8-4.1-4.1V7.7
	L20,7.7z M14.4,3.1V0.9H7.1v2.1L14.4,3.1L14.4,3.1z M6.2,3.1V0.5C6.2,0.2,6.4,0,6.6,0h8.3c0.3,0,0.5,0.2,0.5,0.5v2.6h5.3
	c0.5,0,0.9,0.4,0.9,0.9v2c0,0.5-0.4,0.9-0.9,0.9H0.9C0.4,6.7,0,6.4,0,5.9v-2c0-0.5,0.4-0.9,0.9-0.9L6.2,3.1z M14.4,12.5v11.8
	c0,0.3,0.2,0.5,0.5,0.5c0.3,0,0.5-0.2,0.5-0.5l0-11.8c0-0.3-0.2-0.5-0.5-0.5C14.6,12,14.4,12.2,14.4,12.5L14.4,12.5z M10.3,12.5
	v11.8c0,0.3,0.2,0.5,0.5,0.5c0.3,0,0.5-0.2,0.5-0.5V12.5c0-0.3-0.2-0.5-0.5-0.5C10.5,12,10.3,12.2,10.3,12.5L10.3,12.5z M6.2,12.5
	v11.8c0,0.3,0.2,0.5,0.5,0.5c0.3,0,0.5-0.2,0.5-0.5l0-11.8C7.2,12.2,7,12,6.7,12C6.4,12,6.2,12.2,6.2,12.5L6.2,12.5z"/>
</svg>
