<?xml version="1.0" encoding="utf-8"?>
<!-- Generator: Adobe Illustrator 25.2.0, SVG Export Plug-In . SVG Version: 6.00 Build 0)  -->
<svg version="1.1" id="Layer_1" xmlns="http://www.w3.org/2000/svg" xmlns:xlink="http://www.w3.org/1999/xlink" x="0px" y="0px"
	 viewBox="0 0 160.2 43.4" style="enable-background:new 0 0 160.2 43.4;" xml:space="preserve">
<path id="favIcon" d="M34.1,43.4h-34V11.6H12v20.1h10V11.4h11V1H0V0h34v12.4H23v20.3H11V12.6H1.1v29.8h32V31.7h1V43.4z M33.1,31.7
	H23v1h10.1V31.7z M1.1,1h-1v10.6h1V1z"/>
<g id="text_1_">
	<path d="M61.7,29.4h-5.4v13.9h-2V29.4h-5.4v-1.8h12.8V29.4z"/>
	<path d="M67.2,27.7h1.7l6.4,15.6h-2.1l-1.8-4.6h-6.7l-1.8,4.6h-2.1L67.2,27.7z M70.8,37.2L68.1,30l-2.8,7.2H70.8z"/>
	<path d="M86.3,30.9c-0.2-0.2-0.4-0.4-0.7-0.6s-0.6-0.4-1-0.5c-0.4-0.2-0.8-0.3-1.2-0.4c-0.4-0.1-0.9-0.1-1.4-0.1
		c-1.2,0-2.1,0.2-2.7,0.7c-0.6,0.5-0.9,1.1-0.9,1.9c0,0.6,0.1,1,0.4,1.3c0.3,0.3,0.7,0.6,1.4,0.8c0.6,0.2,1.4,0.4,2.3,0.6
		c1.1,0.2,2,0.5,2.8,0.9s1.4,0.8,1.8,1.3c0.4,0.6,0.6,1.3,0.6,2.2c0,0.7-0.1,1.4-0.4,1.9c-0.3,0.5-0.7,1-1.2,1.4s-1.1,0.6-1.8,0.8
		c-0.7,0.2-1.4,0.3-2.2,0.3c-0.8,0-1.6-0.1-2.3-0.3c-0.8-0.2-1.5-0.4-2.1-0.7c-0.7-0.3-1.3-0.7-1.9-1.2l0.9-1.7
		c0.2,0.2,0.5,0.5,0.9,0.7c0.4,0.2,0.8,0.5,1.3,0.7c0.5,0.2,1,0.4,1.6,0.5c0.6,0.1,1.1,0.2,1.7,0.2c1.1,0,2-0.2,2.6-0.6
		c0.6-0.4,0.9-1,0.9-1.8c0-0.6-0.2-1.1-0.5-1.4c-0.3-0.4-0.9-0.6-1.5-0.9c-0.7-0.2-1.5-0.5-2.5-0.7c-1.1-0.3-1.9-0.6-2.7-0.9
		c-0.7-0.3-1.3-0.7-1.6-1.2s-0.5-1.2-0.5-2c0-1,0.2-1.8,0.7-2.5c0.5-0.7,1.2-1.2,2-1.6c0.9-0.4,1.8-0.5,2.9-0.5c0.7,0,1.4,0.1,2,0.2
		c0.6,0.1,1.2,0.4,1.7,0.6c0.5,0.3,1,0.6,1.5,0.9L86.3,30.9z"/>
	<path d="M90.5,43.3V27.7h2v8.6l8.1-8.7h2.1l-6.3,6.9l6.6,8.7h-2.2l-5.7-7.6l-2.7,2.8v4.8H90.5z"/>
	<path d="M104.9,43.3V27.7h2v13.9h8.7v1.8H104.9z"/>
	<path d="M123.6,43.4c-1.1,0-2.1-0.2-3-0.7c-0.9-0.4-1.7-1-2.3-1.8c-0.7-0.8-1.2-1.6-1.5-2.6c-0.4-0.9-0.5-1.9-0.5-2.9
		c0-1,0.2-2,0.6-3s0.9-1.8,1.6-2.5c0.7-0.7,1.4-1.3,2.3-1.8s1.9-0.6,2.9-0.6c1.1,0,2.1,0.2,3,0.7c0.9,0.5,1.7,1.1,2.3,1.8
		s1.1,1.6,1.5,2.6c0.4,0.9,0.5,1.9,0.5,2.9c0,1-0.2,2-0.5,3c-0.4,0.9-0.9,1.8-1.6,2.5c-0.7,0.7-1.4,1.3-2.3,1.7
		C125.6,43.2,124.6,43.4,123.6,43.4z M118.2,35.5c0,0.8,0.1,1.6,0.4,2.3c0.3,0.7,0.6,1.4,1.1,2c0.5,0.6,1,1,1.7,1.4
		c0.7,0.3,1.4,0.5,2.2,0.5c0.8,0,1.6-0.2,2.2-0.5c0.7-0.4,1.2-0.8,1.7-1.4c0.5-0.6,0.8-1.2,1.1-2s0.4-1.5,0.4-2.2
		c0-0.8-0.1-1.6-0.4-2.3c-0.3-0.7-0.6-1.4-1.1-2c-0.5-0.6-1-1-1.7-1.4c-0.7-0.3-1.4-0.5-2.2-0.5c-0.8,0-1.6,0.2-2.2,0.5
		c-0.7,0.3-1.2,0.8-1.7,1.4s-0.8,1.2-1.1,2C118.4,34,118.2,34.7,118.2,35.5z"/>
	<path d="M140,43.4c-1,0-2-0.2-2.9-0.7c-0.9-0.4-1.7-1-2.3-1.8c-0.7-0.8-1.2-1.6-1.5-2.6c-0.4-0.9-0.5-1.9-0.5-2.9
		c0-1.1,0.2-2.1,0.5-3c0.4-0.9,0.9-1.8,1.5-2.5c0.7-0.7,1.4-1.3,2.3-1.7c0.9-0.4,1.9-0.6,2.9-0.6c1.5,0,2.8,0.3,3.7,0.9
		c1,0.6,1.7,1.5,2.2,2.5l-1.5,1.1c-0.5-0.9-1.1-1.6-1.9-2c-0.8-0.4-1.7-0.7-2.6-0.7c-0.8,0-1.5,0.2-2.2,0.5
		c-0.6,0.3-1.2,0.8-1.7,1.4c-0.5,0.6-0.8,1.2-1.1,2c-0.2,0.7-0.4,1.5-0.4,2.3c0,0.8,0.1,1.6,0.4,2.4c0.3,0.7,0.7,1.4,1.2,2
		c0.5,0.6,1.1,1,1.7,1.3c0.7,0.3,1.4,0.5,2.1,0.5c0.9,0,1.7-0.2,2.6-0.7c0.8-0.5,1.6-1.2,2.3-2.1v2C143.6,42.6,141.9,43.4,140,43.4z
		 M144.7,37h-3.4v-1.5h5v7.8h-1.7V37z"/>
	<path d="M158.6,30.9c-0.2-0.2-0.4-0.4-0.7-0.6s-0.6-0.4-1-0.5c-0.4-0.2-0.8-0.3-1.2-0.4c-0.4-0.1-0.9-0.1-1.4-0.1
		c-1.2,0-2.1,0.2-2.7,0.7c-0.6,0.5-0.9,1.1-0.9,1.9c0,0.6,0.1,1,0.4,1.3c0.3,0.3,0.7,0.6,1.4,0.8c0.6,0.2,1.4,0.4,2.3,0.6
		c1.1,0.2,2,0.5,2.8,0.9s1.4,0.8,1.8,1.3c0.4,0.6,0.6,1.3,0.6,2.2c0,0.7-0.1,1.4-0.4,1.9c-0.3,0.5-0.7,1-1.2,1.4s-1.1,0.6-1.8,0.8
		c-0.7,0.2-1.4,0.3-2.2,0.3c-0.8,0-1.6-0.1-2.3-0.3c-0.8-0.2-1.5-0.4-2.1-0.7c-0.7-0.3-1.3-0.7-1.9-1.2l0.9-1.7
		c0.2,0.2,0.5,0.5,0.9,0.7c0.4,0.2,0.8,0.5,1.3,0.7c0.5,0.2,1,0.4,1.6,0.5c0.6,0.1,1.1,0.2,1.7,0.2c1.1,0,2-0.2,2.6-0.6
		c0.6-0.4,0.9-1,0.9-1.8c0-0.6-0.2-1.1-0.5-1.4c-0.3-0.4-0.9-0.6-1.5-0.9c-0.7-0.2-1.5-0.5-2.5-0.7c-1.1-0.3-1.9-0.6-2.7-0.9
		s-1.3-0.7-1.6-1.2c-0.4-0.5-0.5-1.2-0.5-2c0-1,0.2-1.8,0.7-2.5s1.2-1.2,2-1.6c0.9-0.4,1.8-0.5,2.9-0.5c0.7,0,1.4,0.1,2,0.2
		c0.6,0.1,1.2,0.4,1.7,0.6c0.5,0.3,1,0.6,1.5,0.9L158.6,30.9z"/>
</g>
</svg>
