<?xml version="1.0" encoding="utf-8"?>
<!-- Generator: Adobe Illustrator 25.2.0, SVG Export Plug-In . SVG Version: 6.00 Build 0)  -->
<svg version="1.1" id="Layer_1" xmlns="http://www.w3.org/2000/svg" xmlns:xlink="http://www.w3.org/1999/xlink" x="0px" y="0px"
	 viewBox="0 0 160.9 45.4" style="enable-background:new 0 0 160.9 45.4;" xml:space="preserve">
<g id="task">
	<path d="M62.6,31.4h-5.4v13.9h-2V31.4h-5.4v-1.8h12.8C62.6,29.6,62.6,31.4,62.6,31.4z"/>
	<path d="M68.1,29.7h1.7l6.4,15.6h-2.1l-1.8-4.6h-6.7l-1.8,4.6h-2.1L68.1,29.7z M71.7,39.2L69,32l-2.8,7.2H71.7z"/>
	<path d="M87.2,32.9c-0.2-0.2-0.4-0.4-0.7-0.6s-0.6-0.4-1-0.5c-0.4-0.2-0.8-0.3-1.2-0.4c-0.4-0.1-0.9-0.1-1.4-0.1
		c-1.2,0-2.1,0.2-2.7,0.7s-0.9,1.1-0.9,1.9c0,0.6,0.1,1,0.4,1.3s0.7,0.6,1.4,0.8c0.6,0.2,1.4,0.4,2.3,0.6c1.1,0.2,2,0.5,2.8,0.9
		s1.4,0.8,1.8,1.3c0.4,0.6,0.6,1.3,0.6,2.2c0,0.7-0.1,1.4-0.4,1.9s-0.7,1-1.2,1.4s-1.1,0.6-1.8,0.8c-0.7,0.2-1.4,0.3-2.2,0.3
		c-0.8,0-1.6-0.1-2.3-0.3c-0.8-0.2-1.5-0.4-2.1-0.7c-0.7-0.3-1.3-0.7-1.9-1.2l0.9-1.7c0.2,0.2,0.5,0.5,0.9,0.7s0.8,0.5,1.3,0.7
		s1,0.4,1.6,0.5s1.1,0.2,1.7,0.2c1.1,0,2-0.2,2.6-0.6c0.6-0.4,0.9-1,0.9-1.8c0-0.6-0.2-1.1-0.5-1.4c-0.3-0.4-0.9-0.6-1.5-0.9
		c-0.7-0.2-1.5-0.5-2.5-0.7c-1.1-0.3-1.9-0.6-2.7-0.9c-0.7-0.3-1.3-0.7-1.6-1.2s-0.5-1.2-0.5-2c0-1,0.2-1.8,0.7-2.5s1.2-1.2,2-1.6
		c0.9-0.4,1.8-0.5,2.9-0.5c0.7,0,1.4,0.1,2,0.2s1.2,0.4,1.7,0.6c0.5,0.3,1,0.6,1.5,0.9L87.2,32.9z"/>
	<path d="M91.4,45.3V29.7h2v8.6l8.1-8.7h2.1l-6.3,6.9l6.6,8.7h-2.2L96,37.6l-2.7,2.8v4.8L91.4,45.3L91.4,45.3z"/>
</g>
<g id="logs">
	<path d="M105.8,45.3V29.7h2v13.9h8.7v1.8L105.8,45.3L105.8,45.3z"/>
	<path d="M124.5,45.4c-1.1,0-2.1-0.2-3-0.7c-0.9-0.4-1.7-1-2.3-1.8c-0.7-0.8-1.2-1.6-1.5-2.6c-0.4-0.9-0.5-1.9-0.5-2.9s0.2-2,0.6-3
		s0.9-1.8,1.6-2.5s1.4-1.3,2.3-1.8s1.9-0.6,2.9-0.6c1.1,0,2.1,0.2,3,0.7c0.9,0.5,1.7,1.1,2.3,1.8c0.6,0.7,1.1,1.6,1.5,2.6
		c0.4,0.9,0.5,1.9,0.5,2.9s-0.2,2-0.5,3c-0.4,0.9-0.9,1.8-1.6,2.5c-0.7,0.7-1.4,1.3-2.3,1.7C126.5,45.2,125.5,45.4,124.5,45.4z
		 M119.1,37.5c0,0.8,0.1,1.6,0.4,2.3s0.6,1.4,1.1,2s1,1,1.7,1.4c0.7,0.3,1.4,0.5,2.2,0.5c0.8,0,1.6-0.2,2.2-0.5
		c0.7-0.4,1.2-0.8,1.7-1.4c0.5-0.6,0.8-1.2,1.1-2s0.4-1.5,0.4-2.2c0-0.8-0.1-1.6-0.4-2.3c-0.3-0.7-0.6-1.4-1.1-2
		c-0.5-0.6-1-1-1.7-1.4c-0.7-0.3-1.4-0.5-2.2-0.5c-0.8,0-1.6,0.2-2.2,0.5c-0.7,0.3-1.2,0.8-1.7,1.4s-0.8,1.2-1.1,2
		C119.3,36,119.1,36.7,119.1,37.5z"/>
	<path d="M140.9,45.4c-1,0-2-0.2-2.9-0.7c-0.9-0.4-1.7-1-2.3-1.8c-0.7-0.8-1.2-1.6-1.5-2.6c-0.4-0.9-0.5-1.9-0.5-2.9
		c0-1.1,0.2-2.1,0.5-3c0.4-0.9,0.9-1.8,1.5-2.5c0.7-0.7,1.4-1.3,2.3-1.7c0.9-0.4,1.9-0.6,2.9-0.6c1.5,0,2.8,0.3,3.7,0.9
		c1,0.6,1.7,1.5,2.2,2.5l-1.5,1.1c-0.5-0.9-1.1-1.6-1.9-2c-0.8-0.4-1.7-0.7-2.6-0.7c-0.8,0-1.5,0.2-2.2,0.5
		c-0.6,0.3-1.2,0.8-1.7,1.4c-0.5,0.6-0.8,1.2-1.1,2c-0.2,0.7-0.4,1.5-0.4,2.3s0.1,1.6,0.4,2.4c0.3,0.7,0.7,1.4,1.2,2s1.1,1,1.7,1.3
		c0.7,0.3,1.4,0.5,2.1,0.5c0.9,0,1.7-0.2,2.6-0.7c0.8-0.5,1.6-1.2,2.3-2.1v2C144.5,44.6,142.8,45.4,140.9,45.4z M145.6,39h-3.4v-1.5
		h5v7.8h-1.7L145.6,39L145.6,39z"/>
	<path d="M159.5,32.9c-0.2-0.2-0.4-0.4-0.7-0.6s-0.6-0.4-1-0.5c-0.4-0.2-0.8-0.3-1.2-0.4s-0.9-0.1-1.4-0.1c-1.2,0-2.1,0.2-2.7,0.7
		c-0.6,0.5-0.9,1.1-0.9,1.9c0,0.6,0.1,1,0.4,1.3c0.3,0.3,0.7,0.6,1.4,0.8c0.6,0.2,1.4,0.4,2.3,0.6c1.1,0.2,2,0.5,2.8,0.9
		s1.4,0.8,1.8,1.3c0.4,0.6,0.6,1.3,0.6,2.2c0,0.7-0.1,1.4-0.4,1.9c-0.3,0.5-0.7,1-1.2,1.4s-1.1,0.6-1.8,0.8s-1.4,0.3-2.2,0.3
		s-1.6-0.1-2.3-0.3c-0.8-0.2-1.5-0.4-2.1-0.7c-0.7-0.3-1.3-0.7-1.9-1.2l0.9-1.7c0.2,0.2,0.5,0.5,0.9,0.7s0.8,0.5,1.3,0.7
		s1,0.4,1.6,0.5s1.1,0.2,1.7,0.2c1.1,0,2-0.2,2.6-0.6c0.6-0.4,0.9-1,0.9-1.8c0-0.6-0.2-1.1-0.5-1.4c-0.3-0.4-0.9-0.6-1.5-0.9
		c-0.7-0.2-1.5-0.5-2.5-0.7c-1.1-0.3-1.9-0.6-2.7-0.9s-1.3-0.7-1.6-1.2c-0.4-0.5-0.5-1.2-0.5-2c0-1,0.2-1.8,0.7-2.5s1.2-1.2,2-1.6
		c0.9-0.4,1.8-0.5,2.9-0.5c0.7,0,1.4,0.1,2,0.2s1.2,0.4,1.7,0.6c0.5,0.3,1,0.6,1.5,0.9L159.5,32.9z"/>
</g>
<path id="favIcon_1_" d="M35.9,45.4H0V0h35.9v15.4h-10v15.3h10V45.4z M2,43.4h31.9V32.7h-10V13.4h10V2H2V43.4z M23.9,32.7h-13V15.6
	H2v-2h10.9v17.1h11V32.7z"/>
</svg>
